<svg role="img" class="iconify iconify--logos" width="31.88" height="32" preserveAspectRatio="xMidYMid meet" viewBox="0 0 256 257" fill="none" xmlns="http://www.w3.org/2000/svg">
<g clip-path="url(#clip0_0_38)">
<path d="M25.9841 0L27.2854 0.520503V2.34226L29.1071 3.64352V4.94477H29.6276V6.24603H29.1071L29.6276 8.06779L33.0109 11.4511L36.1339 13.7933L39.7774 15.8753L43.6812 17.1766L48.1055 17.9573H52.79L57.2143 17.1766L61.118 15.8753L64.7616 13.7933L68.4051 10.9306L71.2678 8.06779V4.94477H71.7883V3.64352L73.6101 2.34226V0.520503L73.8704 0.260251H75.4319L75.6921 0.520503V2.34226L77.2536 3.64352V4.94477H78.0344V7.80754L81.1574 11.9716L83.4996 14.5741L85.8419 16.9163L90.7867 20.5598L94.6905 22.9021L97.5532 24.2034L99.8955 25.2444V32.5314L97.8135 33.0519L91.8277 33.8327L88.4444 34.6134L84.2804 35.9147L81.9381 37.4762L80.3766 39.2979L79.5959 41.1197L79.3356 43.9825L80.3766 44.2427L80.6369 48.9272L81.1574 49.4477V51.79H69.1858V48.4067L69.4461 48.1465L69.7063 44.2427L70.7473 43.9825L70.4871 40.3389L69.7063 37.7364L68.1448 35.3942L66.0628 33.3122L63.4603 31.7507L59.8168 30.1891L55.913 29.1481L54.3515 28.8879H46.544L41.8594 29.9289L37.9557 31.4904L34.8327 33.3122L32.2302 35.9147L30.9289 38.5172L30.6686 39.5582L30.4084 43.9825L31.4494 44.2427L31.7096 48.4067L31.9699 48.9272V51.79H19.7381V49.4477L20.2586 48.9272L20.5188 44.2427L21.5598 43.9825L21.0393 40.5992L19.9983 38.5172L17.6561 36.4352L15.0536 35.1339L11.6703 34.0929L3.86276 33.0519L1 32.7917V25.2444L6.46528 22.9021L10.6293 20.2996L14.2728 17.4368L17.6561 14.3138L20.2586 11.4511L22.8611 7.80754L23.1214 6.24603V4.94477L23.6419 3.38327L25.2034 2.34226V0.520503L25.9841 0ZM22.8611 10.1498L21.8201 11.4511V26.8059H22.6009L22.8611 24.7239L23.1214 24.4636V10.1498H22.8611ZM71.0076 10.1498L69.4461 11.7113V26.0251H70.4871L71.0076 24.4636L71.2678 14.0536V10.1498H71.0076ZM77.7741 10.1498V24.4636L78.2946 24.7239L78.5549 26.5456H79.0754V11.7113L78.0344 10.1498H77.7741ZM29.8879 10.6703V24.2034L30.4084 26.0251H31.4494V11.9716L29.8879 10.6703ZM32.7507 13.0126V25.7649H35.0929V14.8343L33.0109 13.0126H32.7507ZM67.8846 13.0126L65.8026 14.5741V25.7649L68.4051 26.0251V13.0126H67.8846ZM20.5188 13.2728L16.0946 17.6971L15.5741 17.9573V26.8059H20.7791V13.2728H20.5188ZM80.1164 13.5331V26.8059H85.3214V18.2176L80.6369 13.5331H80.1164ZM63.9808 16.3958V25.5046H64.7616V16.9163L63.9808 16.3958ZM36.3942 16.6561L36.1339 16.9163V25.5046H36.9147V16.6561H36.3942ZM38.2159 16.9163V25.2444H41.0787V17.9573L38.9967 16.9163H38.2159ZM62.159 16.9163L60.077 17.9573V25.2444H62.6795V16.9163H62.159ZM42.1197 18.4778V24.9841H45.503V18.9983L43.1607 18.4778H42.1197ZM57.7348 18.4778L55.6528 18.9983L55.3925 19.5188V24.2034L55.6528 24.9841H58.7758V18.4778H57.7348ZM86.1022 18.9983V26.8059H91.5674V22.3816L88.7047 20.5598L86.6227 18.9983H86.1022ZM14.0126 19.2586L10.1088 22.1214L9.32804 22.6419V26.8059H14.5331V19.2586H14.0126ZM46.544 19.5188V24.7239H49.9272V19.5188H46.544ZM53.3105 19.2586L50.9682 19.5188V24.7239H54.3515V19.2586H53.3105ZM92.6084 23.4226V26.8059H98.8545L98.334 25.7649L94.17 23.9431L92.6084 23.4226ZM8.02678 23.4226L4.38327 25.2444L2.04101 26.2854L2.30126 26.8059H8.28703V23.4226H8.02678ZM2.30126 27.8469V29.6686H4.90377V27.8469H2.30126ZM6.20503 27.8469V29.6686H8.02678V27.8469H6.20503ZM9.32804 27.8469V29.6686H12.4511V27.8469H9.32804ZM13.7523 27.8469V29.1481H17.1356V27.8469H13.7523ZM18.1766 27.8469V29.1481H22.0804V27.8469H18.1766ZM79.5959 27.5866L79.0754 27.8469V29.1481H82.9791V27.8469L81.1574 27.5866H79.5959ZM84.0201 27.8469V29.4084H87.4034V27.8469H84.0201ZM88.4444 27.8469V29.6686H91.5674V27.8469H88.4444ZM92.6084 27.8469V29.6686H94.6905V27.8469H92.6084ZM95.9917 27.8469V29.6686H98.8545V27.8469H95.9917Z" fill="white"/>
<path d="M15.3149 18.2175H15.5752L15.8354 24.2033L15.5752 26.8058H15.3149L15.0547 22.6418L15.3149 18.2175Z" fill="#EDEEEF"/>
</g>
<path d="M3.48783 67.6745H4.33349C4.05922 68.5033 3.4764 68.9752 2.52789 68.9752C1.56223 68.9752 1.04227 68.3709 1.04227 67.3752C1.04227 66.3393 1.6308 64.8946 3.16213 64.8946C4.04208 64.8946 4.5849 65.3723 4.61347 66.2069H3.77352C3.75638 65.8731 3.61353 65.5393 3.07071 65.5393C2.29362 65.5393 1.90507 66.5464 1.90507 67.3637C1.90507 67.9047 2.0822 68.3249 2.61931 68.3249C3.07643 68.3249 3.31641 68.0544 3.48783 67.6745Z" fill="white"/>
<path d="M6.39006 65.8788C7.09858 65.8788 7.61855 66.2817 7.61855 67.1623C7.61855 67.8587 7.21286 68.9752 5.9558 68.9752C5.13299 68.9752 4.75587 68.4687 4.75587 67.7436C4.75587 66.9436 5.2587 65.8788 6.39006 65.8788ZM6.3272 66.4889C5.79009 66.4889 5.56154 67.2601 5.56154 67.7493C5.56154 68.1637 5.73296 68.3651 6.03579 68.3651C6.59576 68.3651 6.81289 67.5882 6.81289 67.0817C6.81289 66.6961 6.6529 66.4889 6.3272 66.4889Z" fill="white"/>
<path d="M7.87215 68.9177L8.34069 66.6961C8.39212 66.4428 8.44926 66.1896 8.48926 65.9364H9.24921C9.24349 66.0227 9.20921 66.2357 9.19207 66.3105C9.3292 66.1321 9.58633 65.8788 10.0834 65.8788C10.6663 65.8788 10.9977 66.2357 10.8091 67.1162L10.432 68.9177H9.66061L10.0377 67.1105C10.112 66.7767 10.0377 66.5349 9.70632 66.5349C9.3292 66.5349 9.08922 66.8227 8.96923 67.3752L8.64925 68.9177H7.87215Z" fill="white"/>
<path d="M11.1755 68.9177L11.6441 66.6961C11.6955 66.4428 11.7526 66.1896 11.7926 65.9364H12.5526C12.5469 66.0227 12.5126 66.2357 12.4954 66.3105C12.6326 66.1321 12.8897 65.8788 13.3868 65.8788C13.9696 65.8788 14.301 66.2357 14.1125 67.1162L13.7354 68.9177H12.964L13.3411 67.1105C13.4154 66.7767 13.3411 66.5349 13.0097 66.5349C12.6326 66.5349 12.3926 66.8227 12.2726 67.3752L11.9526 68.9177H11.1755Z" fill="white"/>
<path d="M17.3016 67.6054H15.4045C15.3931 67.6687 15.3817 67.7205 15.3817 67.7839C15.3817 68.1004 15.5017 68.3709 15.8502 68.3709C16.1702 68.3709 16.3073 68.204 16.4045 68.0083H17.2159C17.0501 68.4515 16.673 68.9752 15.7874 68.9752C14.9931 68.9752 14.6046 68.4745 14.6046 67.7551C14.6046 66.9666 15.0274 65.8788 16.2045 65.8788C17.073 65.8788 17.3816 66.4141 17.3816 67.0241C17.3816 67.2659 17.3473 67.4385 17.3016 67.6054ZM15.5074 67.0817H16.6273C16.6387 67.0299 16.6387 66.9839 16.6387 66.9493C16.6387 66.6903 16.5245 66.4659 16.1816 66.4659C15.8274 66.4659 15.6102 66.6961 15.5074 67.0817Z" fill="white"/>
<path d="M19.5293 67.945H20.3064C20.1464 68.509 19.7464 68.9752 18.8722 68.9752C18.1237 68.9752 17.7294 68.5321 17.7294 67.8184C17.7294 66.9551 18.2208 65.8788 19.3179 65.8788C20.2778 65.8788 20.5178 66.5637 20.4778 66.9436H19.7236C19.7178 66.7134 19.6436 66.4774 19.295 66.4774C18.7465 66.4774 18.5293 67.3062 18.5293 67.7839C18.5293 68.1982 18.695 68.3824 18.975 68.3824C19.2322 68.3824 19.4093 68.2385 19.5293 67.945Z" fill="white"/>
<path d="M20.8054 66.5349L20.9369 65.9364H21.3768L21.5483 65.1364H22.3196L22.1539 65.9364H22.7082L22.5768 66.5349H22.0225L21.7082 68.0371C21.674 68.2213 21.6854 68.3421 21.9197 68.3421C22.0111 68.3421 22.0854 68.3364 22.1711 68.3249L22.0568 68.8889C21.8797 68.9464 21.6911 68.9464 21.5311 68.9464C20.914 68.9464 20.8169 68.5954 20.9254 68.0716L21.2454 66.5349H20.8054Z" fill="white"/>
<path d="M22.5922 68.9177L23.2207 65.9364H23.9978L23.3693 68.9177H22.5922ZM23.3179 65.4529L23.4722 64.7162H24.2493L24.095 65.4529H23.3179Z" fill="white"/>
<path d="M24.1044 68.9177L24.5729 66.6961C24.6244 66.4428 24.6815 66.1896 24.7215 65.9364H25.4814C25.4757 66.0227 25.4415 66.2357 25.4243 66.3105C25.5614 66.1321 25.8186 65.8788 26.3157 65.8788C26.8985 65.8788 27.2299 66.2357 27.0414 67.1162L26.6642 68.9177H25.8929L26.27 67.1105C26.3443 66.7767 26.27 66.5349 25.9386 66.5349C25.5614 66.5349 25.3215 66.8227 25.2015 67.3752L24.8815 68.9177H24.1044Z" fill="white"/>
<path d="M30.4933 66.6846L30.1104 68.486C29.9047 69.4472 29.6419 70.1148 28.4877 70.1148C27.3792 70.1148 27.2821 69.5162 27.2763 69.1709H28.0649C28.0763 69.3493 28.1906 69.5277 28.5505 69.5277C28.9962 69.5277 29.1734 69.2515 29.3162 68.6184L29.3334 68.5263C29.1391 68.768 28.8877 68.8831 28.5105 68.8831C27.8706 68.8831 27.5278 68.4112 27.5278 67.7263C27.5278 66.8515 28.0877 65.8788 29.0305 65.8788C29.4876 65.8788 29.7333 66.0515 29.8133 66.2357C29.8362 66.1436 29.8933 65.9997 29.9162 65.9364H30.659C30.6076 66.1608 30.5447 66.4313 30.4933 66.6846ZM29.1505 66.5119C28.6134 66.5119 28.3448 67.1392 28.3448 67.6687C28.3448 68.0371 28.5048 68.25 28.8248 68.25C29.2362 68.25 29.4933 67.899 29.6133 67.3522C29.699 66.9493 29.6762 66.5119 29.1505 66.5119Z" fill="white"/>
<path d="M32.2195 68.9177L33.0537 64.9522H34.5565C35.345 64.9522 35.7221 65.3781 35.7221 65.9364C35.7221 66.3738 35.4821 66.7479 35.025 66.8975C35.2993 67.0126 35.5278 67.3177 35.5278 67.6803C35.5278 68.4803 34.905 68.9177 33.9851 68.9177H32.2195ZM33.3794 67.1623L33.1451 68.2903H33.9222C34.3565 68.2903 34.6822 68.0889 34.6822 67.6745C34.6822 67.3522 34.4993 67.1623 34.0194 67.1623H33.3794ZM33.5108 66.5292H34.1965C34.5965 66.5292 34.8993 66.3853 34.8993 66.0112C34.8993 65.6601 34.6307 65.5795 34.3679 65.5795H33.7108L33.5108 66.5292Z" fill="white"/>
<path d="M39.0098 65.9364L38.5527 68.1234C38.4956 68.3824 38.4384 68.6759 38.3985 68.9177H37.6385C37.6442 68.8371 37.6728 68.6126 37.7014 68.5033C37.4785 68.8313 37.1585 68.9752 36.7643 68.9752C36.2157 68.9752 35.9015 68.6069 36.0443 67.922L36.4614 65.9364H37.2328L36.8328 67.8184C36.77 68.1292 36.8157 68.3306 37.1471 68.3306C37.4842 68.3306 37.7813 68.0601 37.9185 67.3982L38.2327 65.9364H39.0098Z" fill="white"/>
<path d="M39.1086 67.9968H39.8914C39.9143 68.2558 40.08 68.3939 40.4057 68.3939C40.7085 68.3939 40.8285 68.2558 40.8285 68.0544C40.8285 67.8644 40.6742 67.7723 40.3028 67.6572C39.6115 67.4385 39.4 67.1968 39.4 66.8285C39.4 66.2932 39.8172 65.8788 40.6057 65.8788C41.4285 65.8788 41.7942 66.3047 41.777 66.7767H40.9885C40.9771 66.6155 40.8971 66.4601 40.5657 66.4601C40.3714 66.4601 40.1771 66.5234 40.1771 66.7306C40.1771 66.8918 40.3371 66.9493 40.6971 67.0702C41.3885 67.2889 41.6285 67.5594 41.6285 67.9738C41.6285 68.6587 41.0171 68.9752 40.32 68.9752C39.5315 68.9752 39.0743 68.6184 39.1086 67.9968Z" fill="white"/>
<path d="M41.9827 68.9177L42.6113 65.9364H43.3884L42.7598 68.9177H41.9827ZM42.7084 65.4529L42.8627 64.7162H43.6398L43.4855 65.4529H42.7084Z" fill="white"/>
<path d="M43.4949 68.9177L43.9635 66.6961C44.0149 66.4428 44.072 66.1896 44.112 65.9364H44.872C44.8663 66.0227 44.832 66.2357 44.8148 66.3105C44.952 66.1321 45.2091 65.8788 45.7062 65.8788C46.289 65.8788 46.6204 66.2357 46.4319 67.1162L46.0548 68.9177H45.2834L45.6605 67.1105C45.7348 66.7767 45.6605 66.5349 45.3291 66.5349C44.952 66.5349 44.712 66.8227 44.592 67.3752L44.272 68.9177H43.4949Z" fill="white"/>
<path d="M49.621 67.6054H47.7239C47.7125 67.6687 47.7011 67.7205 47.7011 67.7839C47.7011 68.1004 47.8211 68.3709 48.1696 68.3709C48.4896 68.3709 48.6267 68.204 48.7239 68.0083H49.5353C49.3696 68.4515 48.9924 68.9752 48.1068 68.9752C47.3125 68.9752 46.924 68.4745 46.924 67.7551C46.924 66.9666 47.3468 65.8788 48.5239 65.8788C49.3924 65.8788 49.701 66.4141 49.701 67.0241C49.701 67.2659 49.6667 67.4385 49.621 67.6054ZM47.8268 67.0817H48.9467C48.9581 67.0299 48.9581 66.9839 48.9581 66.9493C48.9581 66.6903 48.8439 66.4659 48.501 66.4659C48.1468 66.4659 47.9296 66.6961 47.8268 67.0817Z" fill="white"/>
<path d="M49.9283 67.9968H50.7111C50.7339 68.2558 50.8996 68.3939 51.2253 68.3939C51.5282 68.3939 51.6482 68.2558 51.6482 68.0544C51.6482 67.8644 51.4939 67.7723 51.1225 67.6572C50.4311 67.4385 50.2197 67.1968 50.2197 66.8285C50.2197 66.2932 50.6368 65.8788 51.4253 65.8788C52.2481 65.8788 52.6138 66.3047 52.5967 66.7767H51.8081C51.7967 66.6155 51.7167 66.4601 51.3853 66.4601C51.191 66.4601 50.9968 66.5234 50.9968 66.7306C50.9968 66.8918 51.1568 66.9493 51.5167 67.0702C52.2081 67.2889 52.4481 67.5594 52.4481 67.9738C52.4481 68.6587 51.8367 68.9752 51.1396 68.9752C50.3511 68.9752 49.894 68.6184 49.9283 67.9968Z" fill="white"/>
<path d="M52.7908 67.9968H53.5736C53.5965 68.2558 53.7622 68.3939 54.0879 68.3939C54.3907 68.3939 54.5107 68.2558 54.5107 68.0544C54.5107 67.8644 54.3564 67.7723 53.985 67.6572C53.2936 67.4385 53.0822 67.1968 53.0822 66.8285C53.0822 66.2932 53.4993 65.8788 54.2879 65.8788C55.1107 65.8788 55.4764 66.3047 55.4592 66.7767H54.6707C54.6593 66.6155 54.5793 66.4601 54.2479 66.4601C54.0536 66.4601 53.8593 66.5234 53.8593 66.7306C53.8593 66.8918 54.0193 66.9493 54.3793 67.0702C55.0707 67.2889 55.3107 67.5594 55.3107 67.9738C55.3107 68.6587 54.6993 68.9752 54.0022 68.9752C53.2136 68.9752 52.7565 68.6184 52.7908 67.9968Z" fill="white"/>
<path d="M59.8834 66.9608L59.6206 68.1867C59.552 68.4975 59.4891 68.8313 59.4834 68.9177H58.7292C58.7349 68.8313 58.7578 68.6759 58.7692 68.5839C58.6206 68.768 58.4264 68.9752 57.8778 68.9752C57.295 68.9752 57.0493 68.5608 57.0493 68.2098C57.0493 67.381 57.7692 67.1623 58.4206 67.0875C58.6721 67.0644 58.9006 67.0644 59.0835 67.0587L59.112 66.9205C59.152 66.7018 59.152 66.4256 58.7349 66.4256C58.3635 66.4256 58.2949 66.627 58.2321 66.7709H57.4378C57.5464 66.2932 57.8778 65.8788 58.7978 65.8788C59.5177 65.8788 60.0491 66.1839 59.8834 66.9608ZM58.9635 67.6285L58.9749 67.5824C58.7806 67.5824 58.6149 67.5939 58.4606 67.6112C58.0264 67.6803 57.855 67.8241 57.855 68.0774C57.855 68.25 57.9635 68.3824 58.2149 68.3824C58.752 68.3824 58.8892 67.945 58.9635 67.6285Z" fill="white"/>
<path d="M60.207 68.9177L60.6756 66.6961C60.727 66.4428 60.7842 66.1896 60.8242 65.9364H61.5841C61.5784 66.0227 61.5441 66.2357 61.527 66.3105C61.6641 66.1321 61.9212 65.8788 62.4183 65.8788C63.0012 65.8788 63.3326 66.2357 63.144 67.1162L62.7669 68.9177H61.9955L62.3726 67.1105C62.4469 66.7767 62.3726 66.5349 62.0412 66.5349C61.6641 66.5349 61.4241 66.8227 61.3041 67.3752L60.9841 68.9177H60.207Z" fill="white"/>
<path d="M66.2817 64.7162H67.0588L66.3502 68.1119C66.2931 68.3824 66.2302 68.6472 66.1845 68.9177H65.436C65.4417 68.8083 65.4531 68.7105 65.4817 68.5666C65.2932 68.8313 65.0132 68.9752 64.6246 68.9752C63.9904 68.9752 63.6418 68.5205 63.6418 67.7954C63.6418 66.886 64.1847 65.8788 65.2074 65.8788C65.6303 65.8788 65.9045 66.0515 65.9674 66.1954L66.2817 64.7162ZM65.2932 66.5292C64.7446 66.5292 64.4532 67.1738 64.4532 67.7033C64.4532 68.1004 64.6075 68.3249 64.9332 68.3249C65.4074 68.3249 65.6588 67.922 65.7674 67.3177C65.8645 66.8112 65.7217 66.5292 65.2932 66.5292Z" fill="white"/>
<path d="M69.0919 68.9177L69.789 65.6141H68.6348L68.7776 64.9522H71.8803L71.7374 65.6141H70.5889L69.8976 68.9177H69.0919Z" fill="white"/>
<path d="M73.9107 67.6054H72.0137C72.0023 67.6687 71.9909 67.7205 71.9909 67.7839C71.9909 68.1004 72.1109 68.3709 72.4594 68.3709C72.7794 68.3709 72.9165 68.204 73.0137 68.0083H73.825C73.6593 68.4515 73.2822 68.9752 72.3965 68.9752C71.6023 68.9752 71.2138 68.4745 71.2138 67.7551C71.2138 66.9666 71.6366 65.8788 72.8137 65.8788C73.6822 65.8788 73.9907 66.4141 73.9907 67.0241C73.9907 67.2659 73.9565 67.4385 73.9107 67.6054ZM72.1166 67.0817H73.2365C73.2479 67.0299 73.2479 66.9839 73.2479 66.9493C73.2479 66.6903 73.1336 66.4659 72.7908 66.4659C72.4365 66.4659 72.2194 66.6961 72.1166 67.0817Z" fill="white"/>
<path d="M76.1385 67.945H76.9156C76.7556 68.509 76.3556 68.9752 75.4814 68.9752C74.7328 68.9752 74.3386 68.5321 74.3386 67.8184C74.3386 66.9551 74.83 65.8788 75.927 65.8788C76.887 65.8788 77.127 66.5637 77.087 66.9436H76.3327C76.327 66.7134 76.2527 66.4774 75.9042 66.4774C75.3556 66.4774 75.1385 67.3062 75.1385 67.7839C75.1385 68.1982 75.3042 68.3824 75.5842 68.3824C75.8413 68.3824 76.0185 68.2385 76.1385 67.945Z" fill="white"/>
<path d="M77.2596 68.9177L78.1395 64.7162H78.9166L78.5852 66.3162C78.7623 66.0975 79.0194 65.8788 79.4766 65.8788C79.9965 65.8788 80.3908 66.1723 80.2194 67.0126L79.8194 68.9177H79.048L79.4194 67.122C79.4994 66.7364 79.4308 66.5349 79.088 66.5349C78.6995 66.5349 78.4823 66.8227 78.3909 67.2313L78.0366 68.9177H77.2596Z" fill="white"/>
<path d="M80.5629 68.9177L81.0314 66.6961C81.0829 66.4428 81.14 66.1896 81.18 65.9364H81.94C81.9343 66.0227 81.9 66.2357 81.8828 66.3105C82.02 66.1321 82.2771 65.8788 82.7742 65.8788C83.357 65.8788 83.6884 66.2357 83.4999 67.1162L83.1227 68.9177H82.3514L82.7285 67.1105C82.8028 66.7767 82.7285 66.5349 82.3971 66.5349C82.02 66.5349 81.78 66.8227 81.66 67.3752L81.34 68.9177H80.5629Z" fill="white"/>
<path d="M85.6262 65.8788C86.3347 65.8788 86.8547 66.2817 86.8547 67.1623C86.8547 67.8587 86.449 68.9752 85.1919 68.9752C84.3691 68.9752 83.992 68.4687 83.992 67.7436C83.992 66.9436 84.4948 65.8788 85.6262 65.8788ZM85.5633 66.4889C85.0262 66.4889 84.7976 67.2601 84.7976 67.7493C84.7976 68.1637 84.9691 68.3651 85.2719 68.3651C85.8319 68.3651 86.049 67.5882 86.049 67.0817C86.049 66.6961 85.889 66.4889 85.5633 66.4889Z" fill="white"/>
<path d="M87.8854 68.9177H87.1083L87.9882 64.7162H88.7653L87.8854 68.9177Z" fill="white"/>
<path d="M90.3803 65.8788C91.0889 65.8788 91.6088 66.2817 91.6088 67.1623C91.6088 67.8587 91.2031 68.9752 89.9461 68.9752C89.1233 68.9752 88.7461 68.4687 88.7461 67.7436C88.7461 66.9436 89.249 65.8788 90.3803 65.8788ZM90.3175 66.4889C89.7804 66.4889 89.5518 67.2601 89.5518 67.7493C89.5518 68.1637 89.7232 68.3651 90.0261 68.3651C90.586 68.3651 90.8032 67.5882 90.8032 67.0817C90.8032 66.6961 90.6432 66.4889 90.3175 66.4889Z" fill="white"/>
<path d="M94.9703 66.6846L94.5874 68.486C94.3817 69.4472 94.1189 70.1148 92.9647 70.1148C91.8562 70.1148 91.759 69.5162 91.7533 69.1709H92.5419C92.5533 69.3493 92.6676 69.5277 93.0275 69.5277C93.4732 69.5277 93.6504 69.2515 93.7932 68.6184L93.8103 68.5263C93.6161 68.768 93.3647 68.8831 92.9875 68.8831C92.3476 68.8831 92.0047 68.4112 92.0047 67.7263C92.0047 66.8515 92.5647 65.8788 93.5075 65.8788C93.9646 65.8788 94.2103 66.0515 94.2903 66.2357C94.3132 66.1436 94.3703 65.9997 94.3932 65.9364H95.136C95.0845 66.1608 95.0217 66.4313 94.9703 66.6846ZM93.6275 66.5119C93.0904 66.5119 92.8218 67.1392 92.8218 67.6687C92.8218 68.0371 92.9818 68.25 93.3018 68.25C93.7132 68.25 93.9703 67.899 94.0903 67.3522C94.176 66.9493 94.1532 66.5119 93.6275 66.5119Z" fill="white"/>
<path d="M95.539 65.9364H96.3161C96.4247 67.2083 96.4761 67.968 96.4818 68.2788H96.4875C96.6361 67.9508 96.9732 67.1795 97.5789 65.9364H98.3903L96.7789 69.05C96.2818 70.0169 95.9561 70.1148 95.339 70.1148C95.259 70.1148 95.0591 70.0975 94.9448 70.0745L95.0876 69.4299C95.1391 69.4414 95.2248 69.4529 95.3448 69.4529C95.7047 69.4529 95.8133 69.309 95.9276 69.0903L95.539 65.9364Z" fill="white"/>
<path d="M7.09422 64.0782H1.52236C1.33857 64.0782 1.20314 64.0392 1.11608 63.9613C1.03869 63.8736 1 63.7372 1 63.5521V54.0813C1 53.8962 1.03869 53.7647 1.11608 53.6867C1.20314 53.599 1.33857 53.5552 1.52236 53.5552H6.15107C7.09906 53.5552 7.80038 53.7403 8.25503 54.1106C8.70967 54.4711 8.937 55.0313 8.937 55.7913V56.4929C8.937 56.9021 8.86445 57.2382 8.71935 57.5013C8.58392 57.7546 8.37111 57.9446 8.08091 58.0713C8.7 58.1298 9.15949 58.3441 9.45936 58.7144C9.75924 59.0846 9.90917 59.6254 9.90917 60.3367V61.6813C9.90917 62.4998 9.67701 63.1039 9.21269 63.4936C8.75804 63.8833 8.05189 64.0782 7.09422 64.0782ZM4.26476 56.0398V57.6182H5.49812C5.68191 57.6182 5.81734 57.5695 5.9044 57.4721C6.00113 57.3746 6.0495 57.2285 6.0495 57.0336V56.6244C6.0495 56.4295 6.00113 56.2834 5.9044 56.1859C5.81734 56.0885 5.68191 56.0398 5.49812 56.0398H4.26476ZM4.26476 59.869V61.5936H6.15107C6.33486 61.5936 6.47029 61.5449 6.55735 61.4475C6.65408 61.35 6.70245 61.2039 6.70245 61.009V60.439C6.70245 60.2441 6.65408 60.1028 6.55735 60.0151C6.47029 59.9177 6.33486 59.869 6.15107 59.869H4.26476Z" fill="white"/>
<path d="M18.7691 64.0782H12.0365C11.8527 64.0782 11.7173 64.0392 11.6302 63.9613C11.5528 63.8736 11.5141 63.7372 11.5141 63.5521V54.0813C11.5141 53.8962 11.5528 53.7647 11.6302 53.6867C11.7173 53.599 11.8527 53.5552 12.0365 53.5552H18.7691C18.9529 53.5552 19.0835 53.599 19.1609 53.6867C19.248 53.7647 19.2915 53.8962 19.2915 54.0813V55.7913C19.2915 55.9764 19.248 56.1129 19.1609 56.2005C19.0835 56.2785 18.9529 56.3175 18.7691 56.3175H14.7644V57.4428H17.5938C17.7776 57.4428 17.9082 57.4867 17.9856 57.5744C18.0727 57.6523 18.1162 57.7839 18.1162 57.969V59.5328C18.1162 59.718 18.0727 59.8544 17.9856 59.9421C17.9082 60.02 17.7776 60.059 17.5938 60.059H14.7644V61.3159H18.7691C18.9529 61.3159 19.0835 61.3598 19.1609 61.4475C19.248 61.5254 19.2915 61.6569 19.2915 61.8421V63.5521C19.2915 63.7372 19.248 63.8736 19.1609 63.9613C19.0835 64.0392 18.9529 64.0782 18.7691 64.0782Z" fill="white"/>
<path d="M23.7794 64.0782H21.5304C21.3466 64.0782 21.2111 64.0392 21.1241 63.9613C21.0467 63.8736 21.008 63.7372 21.008 63.5521V54.0813C21.008 53.8962 21.0467 53.7647 21.1241 53.6867C21.2111 53.599 21.3466 53.5552 21.5304 53.5552H28.0018C28.1856 53.5552 28.3162 53.599 28.3936 53.6867C28.4807 53.7647 28.5242 53.8962 28.5242 54.0813V55.8205C28.5242 56.0057 28.4807 56.1421 28.3936 56.2298C28.3162 56.3077 28.1856 56.3467 28.0018 56.3467H24.3018V57.8667H26.8265C27.0103 57.8667 27.1409 57.9105 27.2183 57.9982C27.3054 58.0762 27.3489 58.2077 27.3489 58.3928V60.1467C27.3489 60.3318 27.3054 60.4682 27.2183 60.5559C27.1409 60.6339 27.0103 60.6728 26.8265 60.6728H24.3018V63.5521C24.3018 63.7372 24.2583 63.8736 24.1712 63.9613C24.0938 64.0392 23.9632 64.0782 23.7794 64.0782Z" fill="white"/>
<path d="M38.7579 61.3159C38.7579 61.7641 38.6902 62.1733 38.5547 62.5436C38.429 62.9041 38.1968 63.2159 37.8583 63.479C37.5294 63.7323 37.0699 63.9321 36.4798 64.0782C35.8994 64.2244 35.1594 64.2974 34.2598 64.2974C33.3601 64.2974 32.6153 64.2244 32.0252 64.0782C31.4351 63.9321 30.9708 63.7323 30.6322 63.479C30.3034 63.2159 30.0712 62.9041 29.9358 62.5436C29.81 62.1733 29.7471 61.7641 29.7471 61.3159V56.3321C29.7471 55.8839 29.81 55.4795 29.9358 55.119C30.0712 54.7488 30.3034 54.4321 30.6322 54.169C30.9708 53.9059 31.4351 53.7013 32.0252 53.5552C32.6153 53.409 33.3601 53.3359 34.2598 53.3359C35.1594 53.3359 35.8994 53.409 36.4798 53.5552C37.0699 53.7013 37.5294 53.9059 37.8583 54.169C38.1968 54.4321 38.429 54.7488 38.5547 55.119C38.6902 55.4795 38.7579 55.8839 38.7579 56.3321V61.3159ZM33.0409 60.7898C33.0409 60.9846 33.1135 61.1503 33.2586 61.2867C33.4037 61.4134 33.7374 61.4767 34.2598 61.4767C34.7821 61.4767 35.1159 61.4134 35.261 61.2867C35.4061 61.1503 35.4786 60.9846 35.4786 60.7898V56.8582C35.4786 56.6731 35.4061 56.5172 35.261 56.3905C35.1159 56.2541 34.7821 56.1859 34.2598 56.1859C33.7374 56.1859 33.4037 56.2541 33.2586 56.3905C33.1135 56.5172 33.0409 56.6731 33.0409 56.8582V60.7898Z" fill="white"/>
<path d="M43.8843 56.1859V58.0567H44.9726C45.2241 58.0567 45.3934 57.9934 45.4804 57.8667C45.5675 57.7303 45.611 57.5646 45.611 57.3698V56.8729C45.611 56.678 45.5675 56.5172 45.4804 56.3905C45.3934 56.2541 45.2241 56.1859 44.9726 56.1859H43.8843ZM43.362 64.0782H41.1274C40.9436 64.0782 40.8082 64.0392 40.7212 63.9613C40.6438 63.8736 40.6051 63.7372 40.6051 63.5521V54.0813C40.6051 53.8962 40.6438 53.7647 40.7212 53.6867C40.8082 53.599 40.9436 53.5552 41.1274 53.5552H45.9593C47.0427 53.5552 47.7875 53.7841 48.1938 54.2421C48.6098 54.6903 48.8178 55.2749 48.8178 55.9959V56.6682C48.8178 57.0775 48.7549 57.4282 48.6291 57.7205C48.5131 58.0031 48.3051 58.2077 48.0052 58.3344C48.5276 58.3928 48.9484 58.6072 49.2676 58.9775C49.5965 59.3477 49.7609 59.8398 49.7609 60.4536V63.5521C49.7609 63.7372 49.7174 63.8736 49.6303 63.9613C49.5529 64.0392 49.4224 64.0782 49.2386 64.0782H46.9895C46.8057 64.0782 46.6703 64.0392 46.5832 63.9613C46.5058 63.8736 46.4671 63.7372 46.4671 63.5521V61.3159C46.4671 61.1016 46.4236 60.9457 46.3365 60.8482C46.2592 60.741 46.1189 60.6875 45.9158 60.6875H43.8843V63.5521C43.8843 63.7372 43.8408 63.8736 43.7538 63.9613C43.6764 64.0392 43.5458 64.0782 43.362 64.0782Z" fill="white"/>
<path d="M58.6434 64.0782H51.9108C51.727 64.0782 51.5916 64.0392 51.5045 63.9613C51.4271 63.8736 51.3884 63.7372 51.3884 63.5521V54.0813C51.3884 53.8962 51.4271 53.7647 51.5045 53.6867C51.5916 53.599 51.727 53.5552 51.9108 53.5552H58.6434C58.8272 53.5552 58.9578 53.599 59.0352 53.6867C59.1223 53.7647 59.1658 53.8962 59.1658 54.0813V55.7913C59.1658 55.9764 59.1223 56.1129 59.0352 56.2005C58.9578 56.2785 58.8272 56.3175 58.6434 56.3175H54.6387V57.4428H57.4681C57.6519 57.4428 57.7825 57.4867 57.8599 57.5744C57.947 57.6523 57.9905 57.7839 57.9905 57.969V59.5328C57.9905 59.718 57.947 59.8544 57.8599 59.9421C57.7825 60.02 57.6519 60.059 57.4681 60.059H54.6387V61.3159H58.6434C58.8272 61.3159 58.9578 61.3598 59.0352 61.4475C59.1223 61.5254 59.1658 61.6569 59.1658 61.8421V63.5521C59.1658 63.7372 59.1223 63.8736 59.0352 63.9613C58.9578 64.0392 58.8272 64.0782 58.6434 64.0782Z" fill="white"/>
<path d="M67.7618 64.0782H64.2213C63.0121 64.0782 62.1125 63.8346 61.5224 63.3474C60.942 62.8603 60.6518 62.11 60.6518 61.0967V56.5513C60.6518 55.538 60.942 54.7877 61.5224 54.3005C62.1125 53.8036 63.0121 53.5552 64.2213 53.5552H67.7618C67.9456 53.5552 68.0761 53.599 68.1535 53.6867C68.2406 53.7647 68.2841 53.8962 68.2841 54.0813V55.8498C68.2841 56.0349 68.2406 56.1713 68.1535 56.259C68.0761 56.337 67.9456 56.3759 67.7618 56.3759H64.8452C64.5454 56.3759 64.3229 56.4393 64.1778 56.5659C64.0327 56.6829 63.9601 56.8631 63.9601 57.1067V60.5851C63.9601 60.8287 64.0327 61.009 64.1778 61.1259C64.3229 61.2331 64.5454 61.2867 64.8452 61.2867H67.7618C67.9456 61.2867 68.0761 61.3305 68.1535 61.4182C68.2406 61.4962 68.2841 61.6277 68.2841 61.8128V63.5521C68.2841 63.7372 68.2406 63.8736 68.1535 63.9613C68.0761 64.0392 67.9456 64.0782 67.7618 64.0782Z" fill="white"/>
<path d="M78.703 61.3159C78.703 61.7641 78.6353 62.1733 78.4999 62.5436C78.3741 62.9041 78.142 63.2159 77.8034 63.479C77.4745 63.7323 77.015 63.9321 76.4249 64.0782C75.8446 64.2244 75.1045 64.2974 74.2049 64.2974C73.3053 64.2974 72.5604 64.2244 71.9704 64.0782C71.3803 63.9321 70.916 63.7323 70.5774 63.479C70.2485 63.2159 70.0163 62.9041 69.8809 62.5436C69.7552 62.1733 69.6923 61.7641 69.6923 61.3159V56.3321C69.6923 55.8839 69.7552 55.4795 69.8809 55.119C70.0163 54.7488 70.2485 54.4321 70.5774 54.169C70.916 53.9059 71.3803 53.7013 71.9704 53.5552C72.5604 53.409 73.3053 53.3359 74.2049 53.3359C75.1045 53.3359 75.8446 53.409 76.4249 53.5552C77.015 53.7013 77.4745 53.9059 77.8034 54.169C78.142 54.4321 78.3741 54.7488 78.4999 55.119C78.6353 55.4795 78.703 55.8839 78.703 56.3321V61.3159ZM72.9861 60.7898C72.9861 60.9846 73.0586 61.1503 73.2037 61.2867C73.3488 61.4134 73.6825 61.4767 74.2049 61.4767C74.7273 61.4767 75.061 61.4134 75.2061 61.2867C75.3512 61.1503 75.4238 60.9846 75.4238 60.7898V56.8582C75.4238 56.6731 75.3512 56.5172 75.2061 56.3905C75.061 56.2541 74.7273 56.1859 74.2049 56.1859C73.6825 56.1859 73.3488 56.2541 73.2037 56.3905C73.0586 56.5172 72.9861 56.6731 72.9861 56.8582V60.7898Z" fill="white"/>
<path d="M85.9625 64.0782H81.0726C80.8888 64.0782 80.7534 64.0392 80.6663 63.9613C80.5889 63.8736 80.5502 63.7372 80.5502 63.5521V54.0813C80.5502 53.8962 80.5889 53.7647 80.6663 53.6867C80.7534 53.599 80.8888 53.5552 81.0726 53.5552H85.9625C87.1716 53.5552 88.0664 53.7988 88.6468 54.2859C89.2369 54.7731 89.532 55.5234 89.532 56.5367V61.0967C89.532 62.11 89.2369 62.8603 88.6468 63.3474C88.0664 63.8346 87.1716 64.0782 85.9625 64.0782ZM83.844 56.3467V61.3159H85.5707C85.8029 61.3159 85.9721 61.2575 86.0786 61.1405C86.1946 61.0236 86.2527 60.8434 86.2527 60.5998V57.0482C86.2527 56.8046 86.1946 56.6293 86.0786 56.5221C85.9721 56.4052 85.8029 56.3467 85.5707 56.3467H83.844Z" fill="white"/>
<path d="M98.6311 64.0782H91.8984C91.7147 64.0782 91.5792 64.0392 91.4922 63.9613C91.4148 63.8736 91.3761 63.7372 91.3761 63.5521V54.0813C91.3761 53.8962 91.4148 53.7647 91.4922 53.6867C91.5792 53.599 91.7147 53.5552 91.8984 53.5552H98.6311C98.8149 53.5552 98.9455 53.599 99.0229 53.6867C99.1099 53.7647 99.1535 53.8962 99.1535 54.0813V55.7913C99.1535 55.9764 99.1099 56.1129 99.0229 56.2005C98.9455 56.2785 98.8149 56.3175 98.6311 56.3175H94.6263V57.4428H97.4558C97.6396 57.4428 97.7702 57.4867 97.8476 57.5744C97.9346 57.6523 97.9782 57.7839 97.9782 57.969V59.5328C97.9782 59.718 97.9346 59.8544 97.8476 59.9421C97.7702 60.02 97.6396 60.059 97.4558 60.059H94.6263V61.3159H98.6311C98.8149 61.3159 98.9455 61.3598 99.0229 61.4475C99.1099 61.5254 99.1535 61.6569 99.1535 61.8421V63.5521C99.1535 63.7372 99.1099 63.8736 99.0229 63.9613C98.9455 64.0392 98.8149 64.0782 98.6311 64.0782Z" fill="white"/>
<defs>
<clipPath id="clip0_0_38">
<rect width="31.88" height="31.79" fill="white" transform="translate(1)"/>
</clipPath>
</defs>
</svg>
