<svg width="100" height="100" viewBox="0 0 100 100" fill="none" xmlns="http://www.w3.org/2000/svg">
<rect x="0.5" y="0.5" width="99" height="99" rx="49.5" fill="white"/>
<rect x="0.5" y="0.5" width="99" height="99" rx="49.5" stroke="#FFC7F4"/>
<path fill-rule="evenodd" clip-rule="evenodd" d="M54.5551 38.8997C60.7023 38.8997 65.6856 43.8832 65.6856 50.0302C65.6856 56.7363 59.7989 61.9208 53.1342 61.0709V71.3513H57.9341C58.4213 71.3513 58.8201 70.9524 58.8201 70.4653V65.862C58.8201 64.9678 59.3478 64.1852 60.1762 63.8478C61.4504 63.3289 62.6232 62.6485 63.7068 61.8051C64.4142 61.2545 65.3517 61.1902 66.1298 61.6395L66.1292 61.6406L70.1199 63.9431C70.5403 64.1859 71.0881 64.0395 71.3321 63.6171L71.3332 63.6177L74.7111 57.7668C74.9539 57.3464 74.8071 56.7944 74.3875 56.5522L70.3971 54.2498L70.3976 54.2488C69.6237 53.8011 69.2101 52.9595 69.3311 52.0746C69.4225 51.4071 69.4682 50.7227 69.4682 50.03H69.4708C69.4708 49.3496 69.4242 48.6654 69.3311 47.9857C69.2099 47.1009 69.6237 46.2593 70.3976 45.8116L70.3971 45.8106L74.3875 43.5081C74.8071 43.2659 74.9539 42.714 74.7111 42.2934L71.3321 36.4408C71.2113 36.2316 71.0138 36.0902 70.7927 36.031C70.4152 35.9299 70.2237 36.0888 70.1175 36.1173L66.1296 38.4197L66.1301 38.4207C65.3521 38.87 64.4146 38.8058 63.7072 38.2552C62.6237 37.412 61.4505 36.7314 60.1764 36.2128C59.348 35.8755 58.8202 35.0928 58.8202 34.1986V29.5952C58.8202 29.1079 58.4214 28.7091 57.9342 28.7091H53.1343V38.9897C53.6055 38.9296 54.08 38.8995 54.5551 38.8997ZM51.8451 60.8284C49.8783 60.3363 48.119 59.3211 46.7235 57.9391H33.133V64.0843C35.2531 64.5829 36.0311 67.2384 34.4717 68.7979C32.7087 70.5609 29.6837 69.3049 29.6837 66.8147C29.6837 65.5002 30.5933 64.3784 31.844 64.0843V57.2946C31.844 57.1236 31.9119 56.9597 32.0328 56.8388C32.1537 56.7179 32.3176 56.65 32.4885 56.65H45.6064C44.3551 54.9614 43.5705 52.906 43.4431 50.6748H29.4239C28.9251 52.7952 26.2696 53.5729 24.7102 52.0135C22.9474 50.2507 24.2033 47.2254 26.6935 47.2254C28.008 47.2254 29.1297 48.1351 29.4239 49.3857H43.443C43.571 47.1443 44.3621 45.0804 45.6234 43.3872H32.4884C32.3175 43.3872 32.1535 43.3193 32.0327 43.1985C31.9118 43.0776 31.8439 42.9136 31.8439 42.7427V35.953C29.7236 35.4543 28.9457 32.7988 30.5051 31.2393C32.2681 29.4764 35.2932 30.7325 35.2932 33.2226C35.2932 34.5371 34.3836 35.6588 33.1328 35.953V42.0982H46.7467C48.1385 40.7279 49.8892 39.7214 51.845 39.232V34.1998H42.665C42.494 34.1998 42.3301 34.1319 42.2092 34.0111C42.0884 33.8902 42.0205 33.7263 42.0205 33.5553V26.7657C39.9004 26.2671 39.1223 23.6117 40.6817 22.0521C42.4446 20.2891 45.4698 21.5451 45.4698 24.0354C45.4698 25.3498 44.56 26.4716 43.3094 26.7657V32.9109H51.8449V27.4201H57.9338C59.1326 27.4201 60.1089 28.3964 60.1089 29.5952V34.1984C60.1089 34.5751 60.3108 34.8773 60.6595 35.0193C62.0339 35.5805 63.3252 36.327 64.4974 37.2381C64.6457 37.3535 64.8124 37.4177 64.9792 37.4292C65.2728 37.4495 65.4271 37.3241 65.4877 37.3079L69.4756 35.0055L69.475 35.0045C70.5146 34.4042 71.8432 34.7598 72.4446 35.8013L75.8235 41.6539C76.4233 42.6928 76.0676 44.0185 75.0285 44.6198L75.0291 44.6209L71.0387 46.9234C70.7144 47.1105 70.5537 47.4425 70.6047 47.8146C70.7048 48.5488 70.7549 49.2891 70.7545 50.0301H70.7571C70.7571 50.7631 70.7062 51.5047 70.6048 52.2459C70.5792 52.4333 70.6074 52.6106 70.6815 52.7618C70.7428 52.8869 70.9314 53.1077 71.0412 53.1371L75.0291 55.4395L75.0285 55.4405C76.0678 56.0418 76.4233 57.3676 75.8237 58.4064L72.4448 64.2617C71.8447 65.3014 70.5146 65.6555 69.4753 65.056L69.4758 65.055L65.4851 62.7525C65.1626 62.5664 64.7935 62.5917 64.4973 62.8223C63.3251 63.7334 62.0339 64.48 60.6595 65.0413C60.311 65.1832 60.1091 65.4855 60.1091 65.8622V70.4654C60.1091 71.6642 59.1326 72.6405 57.9339 72.6405H51.845V67.0892H43.3095V73.2344C45.4297 73.7331 46.2077 76.3885 44.6483 77.948C42.8854 79.711 39.8602 78.455 39.8602 75.9648C39.8602 74.6504 40.7698 73.5286 42.0206 73.2344V66.4447C42.0206 66.2738 42.0885 66.1098 42.2094 65.9889C42.3302 65.8681 42.4942 65.8002 42.6651 65.8002H51.8451V60.8284ZM55.1588 42.9302L61.8032 49.5746C61.9241 49.6955 61.9919 49.8594 61.9919 50.0303C61.9919 50.2012 61.9241 50.3651 61.8032 50.486L55.1534 57.1358C54.7467 57.5425 54.0533 57.2493 54.0533 56.68L54.0532 53.3138H48.7651C48.5941 53.3138 48.4302 53.2459 48.3093 53.1251C48.1884 53.0042 48.1205 52.8402 48.1205 52.6693V47.3913C48.1205 47.2204 48.1884 47.0564 48.3093 46.9355C48.4302 46.8147 48.5941 46.7468 48.7651 46.7468H54.0532V43.3804C54.0532 42.8016 54.7584 42.52 55.1588 42.9302ZM60.4361 50.0302L55.3422 55.1241V52.6693C55.3422 52.4984 55.2743 52.3344 55.1534 52.2135C55.0326 52.0927 54.8686 52.0248 54.6977 52.0248H49.4096V48.0358H54.6977C54.8686 48.0358 55.0326 47.9679 55.1534 47.847C55.2743 47.7262 55.3422 47.5622 55.3422 47.3913V44.9363L60.4361 50.0302ZM42.665 25.5511C44.0117 25.5511 44.6889 23.9155 43.7368 22.9634C42.7846 22.0113 41.1492 22.6886 41.1492 24.0354C41.1493 24.8725 41.8278 25.5511 42.665 25.5511ZM33.5602 65.7429C32.6081 64.7907 30.9726 65.468 30.9726 66.8148C30.9726 68.1614 32.608 68.8388 33.5602 67.8867C34.1521 67.2948 34.1521 66.3347 33.5602 65.7429ZM47.3722 56.758C43.7414 52.883 43.8408 46.8263 47.596 43.0712C51.4392 39.2279 57.671 39.2279 61.5141 43.0712C65.3574 46.9145 65.3574 53.1461 61.5141 56.9894C57.6638 60.8397 51.4066 60.8243 47.596 56.9894C47.5141 56.9069 47.5123 56.8514 47.3722 56.758ZM32.4884 34.7384C33.8351 34.7384 34.5124 33.1029 33.5602 32.1508C32.6081 31.1987 30.9726 31.876 30.9726 33.2227C30.9726 34.06 31.6511 34.7384 32.4884 34.7384ZM43.7369 74.8929C42.7848 73.9407 41.1493 74.618 41.1493 75.9648C41.1493 77.3115 42.7848 77.9888 43.7369 77.0367C44.3287 76.4448 44.3287 75.4847 43.7369 74.8929ZM27.7653 48.9584C26.8133 48.0064 25.1777 48.6834 25.1777 50.0302C25.1777 51.3771 26.8133 52.0542 27.7653 51.1022C28.3572 50.5104 28.3572 49.5502 27.7653 48.9584Z" fill="#EE7FD8"/>
</svg>
