<svg width="100" height="100" viewBox="0 0 100 100" fill="none" xmlns="http://www.w3.org/2000/svg">
<rect x="0.5" y="0.5" width="99" height="99" rx="49.5" fill="white"/>
<rect x="0.5" y="0.5" width="99" height="99" rx="49.5" stroke="#CDB6FF"/>
<path d="M44.6526 72.4869L44.4762 73.3479L44.6461 72.4859C44.5329 72.4636 44.4164 72.4639 44.3033 72.4866C44.1901 72.5093 44.0826 72.5541 43.9867 72.6184C43.8909 72.6827 43.8087 72.7652 43.7447 72.8613C43.6808 72.9574 43.6364 73.0651 43.6141 73.1783C43.5918 73.2916 43.592 73.4081 43.6148 73.5212C43.6375 73.6344 43.6823 73.7419 43.7466 73.8377C43.8109 73.9336 43.8934 74.0158 43.9895 74.0797C44.0856 74.1437 44.1933 74.1881 44.3065 74.2104C44.3078 74.2108 44.3211 74.213 44.3225 74.2135C44.3784 74.2241 44.4338 74.2296 44.4886 74.2296C44.902 74.2296 45.2705 73.9366 45.3505 73.5154C45.4422 73.0385 45.1295 72.5779 44.6525 72.4869H44.6526ZM51.3725 72.7693L51.4599 73.6435L51.3696 72.7698C51.2549 72.7815 51.1435 72.8158 51.042 72.8706C50.9404 72.9255 50.8507 72.9998 50.7779 73.0893C50.7051 73.1788 50.6506 73.2818 50.6176 73.3924C50.5847 73.503 50.5738 73.619 50.5857 73.7337C50.5974 73.8486 50.6317 73.96 50.6865 74.0616C50.7413 74.1632 50.8156 74.253 50.9051 74.3258C50.9946 74.3987 51.0976 74.4532 51.2082 74.4863C51.3188 74.5193 51.4348 74.5302 51.5497 74.5184L51.5739 74.5156C52.0545 74.4594 52.3956 74.0258 52.3421 73.5452C52.288 73.065 51.8532 72.719 51.3725 72.7693ZM48.0079 72.88L47.995 72.8796C47.5108 72.8577 47.1061 73.2339 47.0841 73.7186C47.0627 74.2034 47.4435 74.6141 47.9282 74.6361C48.0435 74.6414 48.1587 74.6239 48.2673 74.5846C48.3758 74.5454 48.4756 74.4851 48.5608 74.4072C48.6461 74.3294 48.7151 74.2355 48.7641 74.131C48.813 74.0264 48.8408 73.9133 48.846 73.798C48.8513 73.6827 48.8338 73.5674 48.7945 73.4589C48.7552 73.3504 48.6949 73.2506 48.6171 73.1654C48.5393 73.0801 48.4454 73.0111 48.3409 72.9621C48.2364 72.9131 48.1232 72.8853 48.0079 72.88ZM41.406 71.5938L41.395 71.5896C40.9382 71.4257 40.4402 71.6647 40.2763 72.1216C40.1119 72.5784 40.3546 73.0837 40.8114 73.2481C41.0308 73.3268 41.2725 73.3152 41.4833 73.2158C41.6941 73.1164 41.8568 72.9373 41.9357 72.718C41.9748 72.6094 41.9921 72.4941 41.9866 72.3789C41.9812 72.2636 41.953 72.1505 41.9038 72.0461C41.8546 71.9417 41.7854 71.848 41.6999 71.7704C41.6145 71.6928 41.5146 71.6328 41.406 71.5938ZM54.6895 72.1541L54.9059 73.006L54.6868 72.155C54.4794 72.2082 54.2986 72.3352 54.1782 72.5122C54.0579 72.6892 54.0063 72.904 54.0331 73.1164C54.0599 73.3288 54.1632 73.524 54.3238 73.6656C54.4843 73.8072 54.691 73.8853 54.9051 73.8853C54.9777 73.8853 55.0516 73.8761 55.1253 73.8569C55.1288 73.856 55.1445 73.8519 55.1486 73.8511C55.615 73.7237 55.8878 73.2445 55.7634 72.777C55.6388 72.3102 55.1577 72.0323 54.6895 72.1541ZM57.8668 71.0458L58.2152 71.8524L57.8641 71.0468C57.6504 71.1399 57.4825 71.314 57.3972 71.5309C57.3119 71.7478 57.3161 71.9897 57.409 72.2034C57.4774 72.3605 57.5902 72.4941 57.7334 72.588C57.8767 72.6819 58.0443 72.7319 58.2156 72.7318C58.3323 72.7318 58.4518 72.7079 58.5658 72.6586C58.5694 72.6567 58.5836 72.6507 58.5873 72.6489C59.0281 72.4497 59.2226 71.9334 59.0259 71.4917C58.829 71.0495 58.3098 70.8513 57.8669 71.0458H57.8668ZM38.0488 30.9806C38.1898 30.9806 38.3331 30.9466 38.4653 30.8762C38.5672 30.8218 38.6573 30.748 38.7306 30.6588C38.8039 30.5696 38.8589 30.4669 38.8925 30.3564C38.9261 30.246 38.9376 30.13 38.9263 30.0151C38.9151 29.9002 38.8813 29.7887 38.827 29.6868C38.7727 29.585 38.6989 29.4949 38.6097 29.4216C38.5206 29.3483 38.4179 29.2933 38.3075 29.2597C38.1971 29.2261 38.0812 29.2146 37.9663 29.2259C37.8515 29.2371 37.74 29.2708 37.6382 29.3252L37.6277 29.3307C37.1997 29.5592 37.0427 30.0888 37.2711 30.5172C37.4286 30.813 37.7343 30.9806 38.0488 30.9806ZM27.8823 40.7973C27.9846 40.851 28.0964 40.884 28.2114 40.8945C28.3264 40.905 28.4424 40.8927 28.5526 40.8583C28.6629 40.8239 28.7653 40.7681 28.8539 40.6941C28.9426 40.62 29.0158 40.5293 29.0693 40.427L29.0849 40.3963C29.1359 40.2927 29.166 40.1801 29.1734 40.0649C29.1809 39.9497 29.1655 39.8341 29.1283 39.7248C29.091 39.6156 29.0326 39.5147 28.9564 39.428C28.8801 39.3414 28.7875 39.2706 28.6839 39.2197C28.4762 39.1174 28.2366 39.1012 28.017 39.1746C27.7975 39.2481 27.6158 39.4053 27.5116 39.612C27.4038 39.8184 27.3823 40.0591 27.4518 40.2813C27.5213 40.5036 27.6762 40.6891 27.8823 40.7973ZM26.645 44.1037C26.7384 44.1354 26.8332 44.1504 26.927 44.1504C27.1108 44.1502 27.2898 44.0924 27.4391 43.9853C27.5883 43.8782 27.7003 43.727 27.7592 43.5529L27.7707 43.5181C27.8046 43.4078 27.8165 43.2919 27.8056 43.177C27.7947 43.0621 27.7613 42.9505 27.7073 42.8485C27.6533 42.7466 27.5797 42.6562 27.4907 42.5827C27.4017 42.5092 27.2992 42.4539 27.1888 42.4201C26.9678 42.352 26.7289 42.3738 26.5238 42.4807C26.3187 42.5876 26.1641 42.7711 26.0934 42.9913C26.0192 43.2119 26.0357 43.453 26.1391 43.6616C26.2425 43.8701 26.4244 44.0291 26.645 44.1037ZM29.6163 37.7224C29.7095 37.7904 29.8153 37.8393 29.9276 37.8664C30.0398 37.8935 30.1562 37.8982 30.2703 37.8802C30.3843 37.8622 30.4937 37.8219 30.5921 37.7616C30.6906 37.7013 30.7762 37.6222 30.844 37.5288L30.8555 37.5132C31.1375 37.1186 31.0455 36.5711 30.6518 36.2892C30.2576 36.0068 29.7084 36.0973 29.4255 36.4911L30.1336 37.012L29.4227 36.4947C29.2856 36.6832 29.229 36.9184 29.2653 37.1487C29.3016 37.3789 29.4278 37.5853 29.6163 37.7224ZM35.0651 32.8788C35.2496 32.8788 35.4354 32.8207 35.5943 32.6998C35.9861 32.4133 36.0708 31.8635 35.7842 31.4717C35.6465 31.2837 35.4398 31.158 35.2095 31.1224C34.9791 31.0868 34.7441 31.1441 34.5561 31.2818L34.5341 31.2977C34.1478 31.5911 34.0708 32.1437 34.3642 32.5305C34.4461 32.6388 34.5521 32.7266 34.6737 32.787C34.7953 32.8475 34.9293 32.8789 35.0651 32.8788ZM25.8604 57.4328C25.9155 57.6122 26.0267 57.7692 26.1777 57.8808C26.3286 57.9923 26.5113 58.0526 26.699 58.0527C26.7845 58.0527 26.8721 58.0398 26.9581 58.0133C27.4196 57.8718 27.68 57.3829 27.5417 56.9206C27.478 56.6984 27.3294 56.5103 27.1279 56.3969C26.9265 56.2835 26.6885 56.2541 26.4655 56.315C26.2407 56.3764 26.0494 56.5246 25.9338 56.727C25.8181 56.9294 25.7876 57.1694 25.8489 57.3943L25.8604 57.4328ZM32.41 35.1951C32.6385 35.1951 32.867 35.1068 33.0395 34.931C33.3823 34.5876 33.3823 34.031 33.0395 33.6882C32.9579 33.6066 32.861 33.5418 32.7543 33.4976C32.6476 33.4534 32.5333 33.4307 32.4179 33.4307C32.3024 33.4307 32.1881 33.4534 32.0814 33.4976C31.9747 33.5418 31.8778 33.6066 31.7962 33.6882L31.7815 33.7029C31.4419 34.0494 31.4487 34.6051 31.7954 34.9447C31.9594 35.1057 32.1801 35.1957 32.41 35.1951ZM26.8319 53.6009C26.77 53.1234 26.3338 52.7847 25.8557 52.8416C25.6243 52.8693 25.4135 52.9878 25.2694 53.1709C25.1253 53.3541 25.0598 53.5869 25.0872 53.8183L25.0922 53.8535C25.1563 54.2902 25.5312 54.6035 25.9602 54.6035C26.0023 54.6035 26.0453 54.6002 26.0888 54.5938C26.5671 54.5241 26.8991 54.0793 26.8319 53.6009ZM25.7276 51.0836C25.7368 51.0836 25.7455 51.0841 25.7542 51.0841C25.9828 51.084 26.2023 50.9948 26.3662 50.8355C26.5301 50.6762 26.6255 50.4593 26.6322 50.2309L26.6331 50.1934C26.6331 49.9603 26.5405 49.7367 26.3757 49.5719C26.2109 49.4071 25.9873 49.3145 25.7542 49.3145C25.5231 49.3143 25.3012 49.4053 25.1367 49.5677C24.9721 49.7301 24.8782 49.9507 24.8753 50.1819C24.8691 50.4144 24.9553 50.6399 25.1151 50.8089C25.2749 50.9779 25.4951 51.0767 25.7276 51.0836ZM25.9204 47.5589C26.1499 47.5998 26.3863 47.548 26.5776 47.4148C26.7689 47.2815 26.8995 47.0778 26.9407 46.8484C26.9431 46.8356 26.9448 46.8228 26.9466 46.8099C26.9635 46.6957 26.9577 46.5793 26.9295 46.4674C26.9014 46.3554 26.8514 46.2502 26.7826 46.1575C26.7137 46.0649 26.6272 45.9867 26.5281 45.9275C26.429 45.8684 26.3192 45.8293 26.205 45.8125C25.7304 45.742 25.2859 46.0684 25.2094 46.5417C25.1262 47.0186 25.4438 47.4733 25.9204 47.5589ZM67.3799 37.9999C67.4606 38.1172 67.5686 38.213 67.6947 38.2792C67.8207 38.3453 67.961 38.3797 68.1033 38.3793C68.2749 38.3793 68.4489 38.3289 68.6009 38.2242C69.0005 37.9495 69.1016 37.402 68.8271 37.0019L68.0964 37.4908L68.8243 36.9978C68.7595 36.9023 68.6765 36.8204 68.5801 36.7569C68.4837 36.6934 68.3757 36.6495 68.2624 36.6278C68.149 36.606 68.0325 36.6068 67.9194 36.6301C67.8063 36.6533 67.699 36.6987 67.6034 36.7634C67.5079 36.8282 67.426 36.9112 67.3625 37.0076C67.299 37.104 67.2551 37.212 67.2334 37.3253C67.2116 37.4387 67.2124 37.5552 67.2357 37.6683C67.2589 37.7814 67.3043 37.8887 67.369 37.9843L67.3799 37.9999ZM71.8684 46.8443C71.7537 46.8571 71.6427 46.8925 71.5416 46.9483C71.4405 47.0041 71.3515 47.0793 71.2795 47.1695C71.2075 47.2598 71.154 47.3634 71.1221 47.4743C71.0901 47.5852 71.0804 47.7014 71.0934 47.8161L71.0981 47.8542C71.1312 48.0849 71.2546 48.2931 71.4411 48.4329C71.6276 48.5727 71.862 48.6327 72.0927 48.5998C72.3215 48.567 72.5281 48.4455 72.6679 48.2615C72.8077 48.0775 72.8695 47.8458 72.8398 47.6166C72.7844 47.1355 72.3476 46.7902 71.8683 46.8444L71.8684 46.8443ZM70.3852 44.3641L70.389 44.3756C70.4424 44.5577 70.5534 44.7176 70.7053 44.8314C70.8572 44.9452 71.0419 45.0067 71.2316 45.0069C71.3137 45.0069 71.3969 44.9954 71.4797 44.9707C71.5905 44.9381 71.6938 44.8841 71.7837 44.8116C71.8735 44.7392 71.9483 44.6497 72.0036 44.5484C72.0589 44.4471 72.0937 44.3358 72.106 44.221C72.1183 44.1063 72.1078 43.9902 72.0753 43.8794L72.0716 43.8679C72.0392 43.7571 71.9851 43.6538 71.9127 43.564C71.8402 43.4741 71.7507 43.3994 71.6494 43.3441C71.548 43.2888 71.4367 43.2541 71.3219 43.2418C71.2071 43.2296 71.091 43.2402 70.9803 43.2729C70.7567 43.3386 70.5683 43.4906 70.4567 43.6952C70.3451 43.8999 70.3194 44.1405 70.3852 44.3641ZM69.1438 41.0778C69.2167 41.2259 69.3296 41.3506 69.4697 41.4378C69.6098 41.5251 69.7716 41.5713 69.9366 41.5713C70.0662 41.5713 70.1979 41.5425 70.3222 41.4811C70.7574 41.267 70.9382 40.7432 70.7235 40.3074L69.927 40.6787L70.7227 40.3055C70.6737 40.2011 70.6046 40.1073 70.5194 40.0295C70.4341 39.9517 70.3344 39.8915 70.2258 39.8522C70.1173 39.813 70.0021 39.7955 69.8869 39.8008C69.7716 39.8061 69.6585 39.8341 69.554 39.8831C69.3429 39.982 69.1798 40.1607 69.1004 40.3798C69.0211 40.599 69.0321 40.8407 69.1309 41.0518L69.1438 41.0778ZM65.1663 35.2551C65.248 35.3388 65.3456 35.4052 65.4534 35.4505C65.5612 35.4958 65.677 35.519 65.7939 35.5188C66.0159 35.5188 66.2379 35.4355 66.4091 35.2674C66.5743 35.1057 66.669 34.8854 66.6727 34.6543C66.6765 34.4231 66.589 34.1999 66.4292 34.0329C66.3508 33.9482 66.2564 33.8798 66.1516 33.8316C66.0467 33.7834 65.9334 33.7563 65.8181 33.7519C65.7028 33.7475 65.5877 33.7658 65.4795 33.8059C65.3712 33.8459 65.272 33.9069 65.1873 33.9853C65.1026 34.0638 65.0342 34.1581 64.986 34.2629C64.9378 34.3678 64.9107 34.4811 64.9063 34.5964C64.9019 34.7118 64.9203 34.8268 64.9603 34.9351C65.0004 35.0433 65.0613 35.1426 65.1398 35.2272L65.1663 35.2551ZM72.1541 50.5142C71.6711 50.5018 71.2669 50.8804 71.2499 51.3634C71.2445 51.4821 71.2632 51.6007 71.305 51.7121C71.3467 51.8234 71.4106 51.9251 71.4927 52.011C71.5749 52.0969 71.6736 52.1653 71.783 52.212C71.8923 52.2586 72.01 52.2827 72.1288 52.2826C72.5917 52.2826 72.9794 51.9205 73.0054 51.4522L73.0068 51.416C73.0206 50.9312 72.6388 50.5284 72.154 50.5142H72.1541ZM59.5459 30.9393L59.5669 30.9507C59.693 31.018 59.8337 31.0532 59.9766 31.0532C60.1355 31.0531 60.2914 31.0099 60.4277 30.9283C60.564 30.8466 60.6756 30.7296 60.7506 30.5895C60.9796 30.1634 60.8185 29.6306 60.3937 29.3998L59.9683 30.1688L60.3909 29.398C60.2896 29.3425 60.1785 29.3075 60.0637 29.295C59.949 29.2825 59.8329 29.2927 59.722 29.325C59.6112 29.3574 59.5079 29.4112 59.4179 29.4835C59.3279 29.5558 59.253 29.6451 59.1975 29.7464C58.9645 30.1716 59.1202 30.7063 59.5458 30.9393H59.5459ZM62.5185 32.867L62.5323 32.8775C62.6849 32.9935 62.8712 33.0562 63.0629 33.056C63.247 33.056 63.4264 32.9983 63.576 32.8909C63.7255 32.7835 63.8376 32.6319 63.8963 32.4574C63.9551 32.283 63.9576 32.0945 63.9035 31.9185C63.8494 31.7425 63.7414 31.588 63.5948 31.4766L63.5887 31.4725C63.4972 31.4022 63.3927 31.3506 63.2812 31.3207C63.1698 31.2908 63.0535 31.2831 62.9391 31.2981C62.8246 31.3132 62.7143 31.3506 62.6143 31.4082C62.5144 31.4659 62.4267 31.5427 62.3565 31.6343C62.2145 31.8192 62.1519 32.053 62.1822 32.2841C62.2126 32.5153 62.3335 32.7249 62.5184 32.867H62.5185Z" fill="#6328E4"/>
<path d="M79.4574 63.8198L75.3316 59.6866C75.1595 59.5133 74.9548 59.3758 74.7292 59.2823C74.5035 59.1887 74.2616 59.1408 74.0174 59.1415C73.7732 59.1408 73.5313 59.1887 73.3058 59.2823C73.0803 59.3759 72.8756 59.5133 72.7037 59.6866L72.6079 59.7824L72.3369 59.5113C72.0073 59.1818 71.7458 58.7906 71.5674 58.3601C71.5521 58.3038 71.5311 58.2492 71.5047 58.1972C71.3687 57.8139 71.2995 57.41 71.3001 57.0033V55.8341C71.4268 55.901 71.568 55.9359 71.7112 55.9357C71.9166 55.9354 72.1155 55.8632 72.2732 55.7316C72.4309 55.6 72.5375 55.4173 72.5745 55.2152C72.6068 55.0517 72.5919 54.8824 72.5315 54.727C72.4712 54.5716 72.3679 54.4366 72.2337 54.3377C72.0995 54.2388 71.94 54.1801 71.7737 54.1685C71.6074 54.1568 71.4413 54.1927 71.2946 54.2719C71.2406 53.023 70.7301 51.8567 69.8421 50.9667L65.8394 46.9572C64.9413 46.0576 63.7471 45.5624 62.4768 45.5624C61.4935 45.5624 60.5569 45.8604 59.7668 46.412L59.342 45.9849V35.9324C59.3422 34.7214 58.9021 33.5516 58.1037 32.6411C57.5356 31.9936 57.2226 31.1615 57.223 30.3002V29.5635H57.2834C58.3079 29.5635 59.1415 28.73 59.1415 27.7051V21.8586C59.1415 20.8336 58.3079 20 57.2834 20H40.8658C39.8413 20 39.0077 20.8336 39.0077 21.8586V27.7051C39.0077 28.73 39.8413 29.5637 40.8658 29.5637H41.0012V29.949C41.0012 30.8965 40.6327 31.7874 39.9639 32.4571L38.192 34.2323C37.2517 35.1745 36.734 36.4264 36.734 37.7584V43.4288C36.7335 44.173 36.9084 44.907 37.2443 45.5711C36.0789 45.6383 34.9927 46.1241 34.1604 46.9572L30.1578 50.9667C29.2175 51.9089 28.6997 53.1613 28.6997 54.4929V57.0033C28.6997 57.9509 28.3318 58.8416 27.663 59.5113L27.3951 59.7797C27.3938 59.7805 27.3928 59.7814 27.3919 59.7824L27.2968 59.6866C27.1247 59.5133 26.9199 59.3758 26.6943 59.2823C26.4687 59.1887 26.2268 59.1408 25.9825 59.1415C25.7384 59.1408 25.4965 59.1887 25.2709 59.2823C25.0454 59.3759 24.8407 59.5133 24.6687 59.6866L20.5425 63.8198C19.8192 64.5444 19.8192 65.7237 20.5425 66.4483L21.9556 67.8633C22.0371 67.945 22.1339 68.0098 22.2405 68.0541C22.3471 68.0984 22.4613 68.1213 22.5767 68.1214C22.6921 68.1215 22.8065 68.0989 22.9131 68.0548C23.0198 68.0107 23.1167 67.9461 23.1984 67.8646C23.2801 67.783 23.3449 67.6861 23.3892 67.5795C23.4335 67.4728 23.4563 67.3585 23.4564 67.2431C23.4565 67.1276 23.4338 67.0133 23.3897 66.9066C23.3456 66.7999 23.2809 66.7029 23.1993 66.6212L21.7866 65.2059C21.7675 65.1868 21.7568 65.1609 21.7568 65.1339C21.7568 65.1068 21.7675 65.0809 21.7866 65.0618L25.9129 60.9286C25.9221 60.9194 25.9329 60.9121 25.9449 60.9071C25.9569 60.9021 25.9697 60.8996 25.9827 60.8996C25.9957 60.8996 26.0085 60.9021 26.0205 60.9071C26.0325 60.9121 26.0433 60.9194 26.0525 60.9286L26.7699 61.6473H26.7703L36.565 71.4589L37.6623 72.5585C37.7022 72.5983 37.7022 72.6628 37.6623 72.7026L33.5365 76.8358C33.5274 76.8451 33.5164 76.8524 33.5044 76.8574C33.4924 76.8625 33.4795 76.865 33.4665 76.865C33.4534 76.865 33.4405 76.8625 33.4285 76.8574C33.4165 76.8524 33.4056 76.8451 33.3964 76.8358L25.6878 69.1138C25.6063 69.032 25.5095 68.9672 25.4029 68.9229C25.2963 68.8786 25.182 68.8557 25.0666 68.8556C24.9512 68.8555 24.8369 68.8781 24.7302 68.9222C24.6235 68.9663 24.5266 69.0309 24.4449 69.1125C24.3632 69.194 24.2983 69.2909 24.254 69.3975C24.2097 69.5041 24.1868 69.6184 24.1867 69.7339C24.1866 69.8493 24.2092 69.9637 24.2532 70.0704C24.2973 70.1771 24.362 70.2741 24.4435 70.3558L32.1527 78.0778C32.5033 78.4293 32.9703 78.6229 33.4669 78.6229C33.7111 78.6235 33.9529 78.5756 34.1784 78.4821C34.4039 78.3885 34.6086 78.2511 34.7806 78.0778L38.9065 73.9446C39.6298 73.2204 39.6298 72.0412 38.9065 71.3165L38.8616 71.2718L39.3822 70.7503C39.9893 70.1413 40.7977 69.7748 41.6559 69.7194C42.8636 69.6412 44.0014 69.1253 44.856 68.2684L48.6463 64.4699C49.7394 64.1828 50.5904 63.2925 50.8217 62.1773C51.2228 62.3685 51.6617 62.4675 52.106 62.4671C53.7591 62.4671 55.104 61.1208 55.104 59.4655V57.3786C55.4932 57.5565 55.9162 57.6484 56.3441 57.6482C57.997 57.6482 59.3415 56.3019 59.3415 54.6467V48.477L62.045 51.1937C62.1266 51.2759 62.2237 51.3411 62.3307 51.3855C62.4376 51.4299 62.5523 51.4527 62.6681 51.4525C62.7832 51.4526 62.8973 51.4301 63.0037 51.3862C63.1101 51.3423 63.2069 51.2778 63.2884 51.1965C63.4536 51.0321 63.5466 50.8087 63.5471 50.5757C63.5476 50.3426 63.4555 50.1188 63.2911 49.9537L61.0371 47.6887C61.4781 47.446 61.9734 47.3192 62.4768 47.3202C63.2769 47.3202 64.0295 47.6324 64.5953 48.1996L68.5979 52.2086C69.2067 52.8189 69.5423 53.6301 69.5423 54.4929V57.0033C69.5423 58.4201 70.093 59.7517 71.0927 60.7533L71.3655 61.0266L70.0906 62.3037L62.3802 70.0275L61.9503 69.5968C61.9457 69.5926 61.9416 69.588 61.937 69.5839L61.8615 69.508C60.9524 68.597 59.7424 68.0486 58.458 67.9653C57.6757 67.9143 56.9388 67.5798 56.3852 67.0246L53.4973 64.1522C53.4154 64.0707 53.3183 64.0062 53.2116 63.9623C53.1048 63.9184 52.9904 63.8959 52.8749 63.8962C52.7595 63.8965 52.6452 63.9196 52.5387 63.964C52.4321 64.0085 52.3354 64.0735 52.2539 64.1553C51.912 64.4995 51.9134 65.0562 52.2577 65.3981L55.1439 68.2684C55.9986 69.1254 57.1366 69.6413 58.3445 69.7194C59.2023 69.7749 60.0105 70.1413 60.6177 70.7498L60.6603 70.7925C60.6832 70.8185 60.7075 70.8429 60.733 70.8657L61.1382 71.2712L61.0934 71.3165C60.3701 72.0412 60.3701 73.22 61.0934 73.9446L65.2192 78.0778C65.5703 78.4293 66.0368 78.6229 66.5334 78.6229C66.7777 78.6235 67.0196 78.5757 67.2452 78.4821C67.4708 78.3885 67.6756 78.2511 67.8477 78.0778L79.4574 66.4478C80.1807 65.7232 80.1807 64.5444 79.4574 63.8198ZM71.8892 55.0802L71.8728 55.0774L71.7125 55.045L71.8892 55.0802ZM43.6119 67.0264C43.0593 67.5808 42.3235 67.9146 41.5424 67.9653C40.2579 68.0484 39.0477 68.5969 38.1384 69.508L37.6197 70.0275L37.1528 69.5597C37.147 69.5538 37.141 69.5474 37.135 69.5419L28.6342 61.0266L28.9072 60.7533C29.9069 59.7517 30.4576 58.4201 30.4576 57.0033V54.4929C30.4576 53.6301 30.7927 52.8189 31.402 52.2087L35.4046 48.1996C35.9704 47.6324 36.723 47.3202 37.5231 47.3202C38.0364 47.3202 38.5298 47.4492 38.9673 47.6915L36.7097 49.9528C36.5451 50.1178 36.4527 50.3414 36.4529 50.5744C36.453 50.8075 36.5458 51.0309 36.7107 51.1956C36.7922 51.2772 36.8891 51.3418 36.9956 51.3859C37.1022 51.43 37.2164 51.4526 37.3318 51.4525C37.4473 51.4526 37.5618 51.4299 37.6686 51.3856C37.7753 51.3414 37.8723 51.2765 37.9539 51.1947L40.6506 48.493V59.4655C40.6506 61.1208 41.9955 62.4671 43.6485 62.4671C44.1144 62.4671 44.5558 62.36 44.9494 62.1695C45.128 63.0407 45.6846 63.775 46.439 64.1933L43.6119 67.0264ZM57.5842 54.6471C57.5842 55.3329 57.0275 55.8909 56.3441 55.8909C55.6602 55.8909 55.104 55.3329 55.104 54.6471V44.8432C55.104 44.6101 55.0114 44.3866 54.8466 44.2218C54.6818 44.0569 54.4582 43.9643 54.2251 43.9643C53.992 43.9643 53.7685 44.0569 53.6036 44.2218C53.4388 44.3866 53.3462 44.6101 53.3462 44.8432V59.466C53.3462 60.1518 52.7901 60.7093 52.1061 60.7093C51.4922 60.7093 50.9828 60.2598 50.8844 59.6715V44.8333C50.8845 44.6798 50.8444 44.5291 50.7681 44.3959C50.6919 44.2628 50.5821 44.1519 50.4496 44.0744C50.3172 43.9969 50.1668 43.9554 50.0134 43.9541C49.86 43.9528 49.7089 43.9917 49.5751 44.0669C49.4341 44.1417 49.3162 44.2534 49.2339 44.3902C49.1517 44.527 49.1082 44.6836 49.1083 44.8432V59.4655C49.1083 59.5773 49.1146 59.6866 49.1265 59.7952V61.5662C49.1265 62.252 48.5704 62.8099 47.8865 62.8099C47.203 62.8099 46.6469 62.252 46.6469 61.5662V44.8226C46.6469 44.5894 46.5542 44.3658 46.3894 44.201C46.2245 44.0361 46.0009 43.9435 45.7677 43.9435C45.5346 43.9435 45.3109 44.0361 45.1461 44.201C44.9812 44.3658 44.8886 44.5894 44.8886 44.8226V59.4655C44.8886 60.1513 44.3324 60.7093 43.649 60.7093C42.9651 60.7093 42.4089 60.1513 42.4089 59.4655V43.1166C42.4089 42.8835 42.3163 42.6599 42.1515 42.4951C41.9867 42.3303 41.7631 42.2377 41.53 42.2377C41.2969 42.2377 41.0733 42.3303 40.9085 42.4951C40.7437 42.6599 40.6511 42.8835 40.6511 43.1166V46.1405C40.5763 46.1645 40.5051 46.1985 40.4396 46.2417C39.3029 45.8146 38.4918 44.715 38.4918 43.4288V37.7584C38.4918 36.8956 38.8273 36.0844 39.4361 35.4742L41.2082 33.699C42.2084 32.6975 42.7591 31.3658 42.7591 29.949V29.5637H44.526C44.7591 29.5637 44.9827 29.4711 45.1475 29.3062C45.3123 29.1414 45.4049 28.9178 45.4049 28.6847C45.4049 28.1991 45.0117 27.8058 44.526 27.8058H40.8658C40.8391 27.8058 40.8136 27.7951 40.7948 27.7762C40.776 27.7574 40.7655 27.7318 40.7655 27.7052V21.8586C40.7655 21.8032 40.8103 21.7578 40.8658 21.7578H57.2829C57.3096 21.7578 57.3353 21.7684 57.3542 21.7873C57.3731 21.8062 57.3837 21.8319 57.3837 21.8586V27.7051C57.3837 27.761 57.3388 27.8058 57.2829 27.8058H48.6523C48.4192 27.8058 48.1956 27.8984 48.0308 28.0633C47.866 28.2281 47.7734 28.4516 47.7734 28.6847C47.7734 28.9178 47.866 29.1414 48.0308 29.3062C48.1956 29.4711 48.4192 29.5637 48.6523 29.5637H55.4652V30.3002C55.4652 31.5892 55.9325 32.832 56.7817 33.8006C57.2991 34.3902 57.5843 35.148 57.5842 35.9324V54.6471ZM78.2132 65.2059L66.6035 76.8358C66.5945 76.8453 66.5836 76.8528 66.5716 76.8579C66.5595 76.8629 66.5465 76.8654 66.5334 76.8651C66.5204 76.8653 66.5074 76.8628 66.4953 76.8577C66.4833 76.8527 66.4724 76.8452 66.4633 76.8358L62.3375 72.7026C62.3184 72.6835 62.3077 72.6576 62.3077 72.6306C62.3077 72.6035 62.3184 72.5776 62.3375 72.5585L63.0018 71.8929L63.0022 71.8924L69.7419 65.1414L73.9474 60.9285C73.9565 60.9192 73.9674 60.9119 73.9794 60.9069C73.9913 60.9019 74.0042 60.8993 74.0172 60.8993C74.0302 60.8993 74.043 60.9019 74.055 60.9069C74.067 60.9119 74.0778 60.9192 74.087 60.9285L78.2131 65.0617C78.253 65.1015 78.253 65.1661 78.2131 65.2058L78.2132 65.2059Z" fill="#6328E4"/>
<path d="M43.647 23.8445C43.1312 23.8445 42.7114 24.2652 42.7114 24.782C42.7114 25.2992 43.1312 25.7195 43.6471 25.7195C44.1635 25.7195 44.5832 25.2992 44.5832 24.782C44.5832 24.2652 44.1634 23.8445 43.647 23.8445ZM74.3035 63.9089C73.7872 63.9089 73.3674 64.3296 73.3674 64.8464C73.3674 65.3632 73.7872 65.7839 74.3035 65.7839C74.8195 65.7839 75.2393 65.3632 75.2393 64.8464C75.2393 64.3296 74.8195 63.9089 74.3035 63.9089ZM34.6452 72.8755C34.6452 72.3587 34.2254 71.938 33.7095 71.938C33.1932 71.938 32.7734 72.3587 32.7734 72.8755C32.7734 73.3923 33.1932 73.813 33.7095 73.813C34.2254 73.813 34.6452 73.3923 34.6452 72.8755Z" fill="#6328E4"/>
</svg>
