<svg width="100" height="72" viewBox="0 0 100 72" fill="none" xmlns="http://www.w3.org/2000/svg">
<g clip-path="url(#clip0_0_253)">
<path d="M25.9841 0.5L27.2854 1.0205V2.84226L29.1071 4.14352V5.44477H29.6276V6.74603H29.1071L29.6276 8.56779L33.0109 11.9511L36.1339 14.2933L39.7774 16.3753L43.6812 17.6766L48.1055 18.4573H52.79L57.2143 17.6766L61.118 16.3753L64.7616 14.2933L68.4051 11.4306L71.2678 8.56779V5.44477H71.7883V4.14352L73.6101 2.84226V1.0205L73.8704 0.760251H75.4319L75.6921 1.0205V2.84226L77.2536 4.14352V5.44477H78.0344V8.30754L81.1574 12.4716L83.4996 15.0741L85.8419 17.4163L90.7867 21.0598L94.6905 23.4021L97.5532 24.7034L99.8955 25.7444V33.0314L97.8135 33.5519L91.8277 34.3327L88.4444 35.1134L84.2804 36.4147L81.9381 37.9762L80.3766 39.7979L79.5959 41.6197L79.3356 44.4825L80.3766 44.7427L80.6369 49.4272L81.1574 49.9477V52.29H69.1858V48.9067L69.4461 48.6465L69.7063 44.7427L70.7473 44.4825L70.4871 40.8389L69.7063 38.2364L68.1448 35.8942L66.0628 33.8122L63.4603 32.2507L59.8168 30.6891L55.913 29.6481L54.3515 29.3879H46.544L41.8594 30.4289L37.9557 31.9904L34.8327 33.8122L32.2302 36.4147L30.9289 39.0172L30.6686 40.0582L30.4084 44.4825L31.4494 44.7427L31.7096 48.9067L31.9699 49.4272V52.29H19.7381V49.9477L20.2586 49.4272L20.5188 44.7427L21.5598 44.4825L21.0393 41.0992L19.9983 39.0172L17.6561 36.9352L15.0536 35.6339L11.6703 34.5929L3.86276 33.5519L1 33.2917V25.7444L6.46528 23.4021L10.6293 20.7996L14.2728 17.9368L17.6561 14.8138L20.2586 11.9511L22.8611 8.30754L23.1214 6.74603V5.44477L23.6419 3.88327L25.2034 2.84226V1.0205L25.9841 0.5ZM22.8611 10.6498L21.8201 11.9511V27.3059H22.6009L22.8611 25.2239L23.1214 24.9636V10.6498H22.8611ZM71.0076 10.6498L69.4461 12.2113V26.5251H70.4871L71.0076 24.9636L71.2678 14.5536V10.6498H71.0076ZM77.7741 10.6498V24.9636L78.2946 25.2239L78.5549 27.0456H79.0754V12.2113L78.0344 10.6498H77.7741ZM29.8879 11.1703V24.7034L30.4084 26.5251H31.4494V12.4716L29.8879 11.1703ZM32.7507 13.5126V26.2649H35.0929V15.3343L33.0109 13.5126H32.7507ZM67.8846 13.5126L65.8026 15.0741V26.2649L68.4051 26.5251V13.5126H67.8846ZM20.5188 13.7728L16.0946 18.1971L15.5741 18.4573V27.3059H20.7791V13.7728H20.5188ZM80.1164 14.0331V27.3059H85.3214V18.7176L80.6369 14.0331H80.1164ZM63.9808 16.8958V26.0046H64.7616V17.4163L63.9808 16.8958ZM36.3942 17.1561L36.1339 17.4163V26.0046H36.9147V17.1561H36.3942ZM38.2159 17.4163V25.7444H41.0787V18.4573L38.9967 17.4163H38.2159ZM62.159 17.4163L60.077 18.4573V25.7444H62.6795V17.4163H62.159ZM42.1197 18.9778V25.4841H45.503V19.4983L43.1607 18.9778H42.1197ZM57.7348 18.9778L55.6528 19.4983L55.3925 20.0188V24.7034L55.6528 25.4841H58.7758V18.9778H57.7348ZM86.1022 19.4983V27.3059H91.5674V22.8816L88.7047 21.0598L86.6227 19.4983H86.1022ZM14.0126 19.7586L10.1088 22.6214L9.32804 23.1419V27.3059H14.5331V19.7586H14.0126ZM46.544 20.0188V25.2239H49.9272V20.0188H46.544ZM53.3105 19.7586L50.9682 20.0188V25.2239H54.3515V19.7586H53.3105ZM92.6084 23.9226V27.3059H98.8545L98.334 26.2649L94.17 24.4431L92.6084 23.9226ZM8.02678 23.9226L4.38327 25.7444L2.04101 26.7854L2.30126 27.3059H8.28703V23.9226H8.02678ZM2.30126 28.3469V30.1686H4.90377V28.3469H2.30126ZM6.20503 28.3469V30.1686H8.02678V28.3469H6.20503ZM9.32804 28.3469V30.1686H12.4511V28.3469H9.32804ZM13.7523 28.3469V29.6481H17.1356V28.3469H13.7523ZM18.1766 28.3469V29.6481H22.0804V28.3469H18.1766ZM79.5959 28.0866L79.0754 28.3469V29.6481H82.9791V28.3469L81.1574 28.0866H79.5959ZM84.0201 28.3469V29.9084H87.4034V28.3469H84.0201ZM88.4444 28.3469V30.1686H91.5674V28.3469H88.4444ZM92.6084 28.3469V30.1686H94.6905V28.3469H92.6084ZM95.9917 28.3469V30.1686H98.8545V28.3469H95.9917Z" fill="white"/>
<path d="M15.3149 18.7175H15.5752L15.8354 24.7033L15.5752 27.3058H15.3149L15.0547 23.1418L15.3149 18.7175Z" fill="#EDEEEF"/>
</g>
<path d="M3.48783 68.1747H4.33349C4.05922 69.0035 3.4764 69.4755 2.52789 69.4755C1.56223 69.4755 1.04227 68.8711 1.04227 67.8755C1.04227 66.8395 1.6308 65.3949 3.16213 65.3949C4.04208 65.3949 4.5849 65.8726 4.61347 66.7071H3.77352C3.75638 66.3733 3.61353 66.0395 3.07071 66.0395C2.29362 66.0395 1.90507 67.0467 1.90507 67.864C1.90507 68.405 2.0822 68.8251 2.61931 68.8251C3.07643 68.8251 3.31641 68.5546 3.48783 68.1747Z" fill="white"/>
<path d="M6.39006 66.3791C7.09858 66.3791 7.61855 66.7819 7.61855 67.6625C7.61855 68.3589 7.21286 69.4755 5.9558 69.4755C5.13299 69.4755 4.75587 68.969 4.75587 68.2438C4.75587 67.4438 5.2587 66.3791 6.39006 66.3791ZM6.3272 66.9891C5.79009 66.9891 5.56154 67.7604 5.56154 68.2496C5.56154 68.664 5.73296 68.8654 6.03579 68.8654C6.59576 68.8654 6.81289 68.0884 6.81289 67.5819C6.81289 67.1963 6.6529 66.9891 6.3272 66.9891Z" fill="white"/>
<path d="M7.87215 69.4179L8.34069 67.1963C8.39212 66.9431 8.44926 66.6899 8.48926 66.4366H9.24921C9.24349 66.5229 9.20921 66.7359 9.19207 66.8107C9.3292 66.6323 9.58633 66.3791 10.0834 66.3791C10.6663 66.3791 10.9977 66.7359 10.8091 67.6165L10.432 69.4179H9.66061L10.0377 67.6107C10.112 67.2769 10.0377 67.0352 9.70632 67.0352C9.3292 67.0352 9.08922 67.3229 8.96923 67.8755L8.64925 69.4179H7.87215Z" fill="white"/>
<path d="M11.1755 69.4179L11.6441 67.1963C11.6955 66.9431 11.7526 66.6899 11.7926 66.4366H12.5526C12.5469 66.5229 12.5126 66.7359 12.4954 66.8107C12.6326 66.6323 12.8897 66.3791 13.3868 66.3791C13.9696 66.3791 14.301 66.7359 14.1125 67.6165L13.7354 69.4179H12.964L13.3411 67.6107C13.4154 67.2769 13.3411 67.0352 13.0097 67.0352C12.6326 67.0352 12.3926 67.3229 12.2726 67.8755L11.9526 69.4179H11.1755Z" fill="white"/>
<path d="M17.3016 68.1057H15.4045C15.3931 68.169 15.3817 68.2208 15.3817 68.2841C15.3817 68.6006 15.5017 68.8711 15.8502 68.8711C16.1702 68.8711 16.3073 68.7042 16.4045 68.5086H17.2159C17.0501 68.9517 16.673 69.4755 15.7874 69.4755C14.9931 69.4755 14.6046 68.9747 14.6046 68.2553C14.6046 67.4668 15.0274 66.3791 16.2045 66.3791C17.073 66.3791 17.3816 66.9143 17.3816 67.5244C17.3816 67.7661 17.3473 67.9388 17.3016 68.1057ZM15.5074 67.5819H16.6273C16.6387 67.5301 16.6387 67.4841 16.6387 67.4496C16.6387 67.1906 16.5245 66.9661 16.1816 66.9661C15.8274 66.9661 15.6102 67.1963 15.5074 67.5819Z" fill="white"/>
<path d="M19.5293 68.4452H20.3064C20.1464 69.0093 19.7464 69.4755 18.8722 69.4755C18.1237 69.4755 17.7294 69.0323 17.7294 68.3186C17.7294 67.4553 18.2208 66.3791 19.3179 66.3791C20.2778 66.3791 20.5178 67.064 20.4778 67.4438H19.7236C19.7178 67.2136 19.6436 66.9776 19.295 66.9776C18.7465 66.9776 18.5293 67.8064 18.5293 68.2841C18.5293 68.6985 18.695 68.8827 18.975 68.8827C19.2322 68.8827 19.4093 68.7388 19.5293 68.4452Z" fill="white"/>
<path d="M20.8054 67.0352L20.9369 66.4366H21.3768L21.5483 65.6366H22.3196L22.1539 66.4366H22.7082L22.5768 67.0352H22.0225L21.7082 68.5373C21.674 68.7215 21.6854 68.8424 21.9197 68.8424C22.0111 68.8424 22.0854 68.8366 22.1711 68.8251L22.0568 69.3891C21.8797 69.4467 21.6911 69.4467 21.5311 69.4467C20.914 69.4467 20.8169 69.0956 20.9254 68.5719L21.2454 67.0352H20.8054Z" fill="white"/>
<path d="M22.5922 69.4179L23.2207 66.4366H23.9978L23.3693 69.4179H22.5922ZM23.3179 65.9532L23.4722 65.2165H24.2493L24.095 65.9532H23.3179Z" fill="white"/>
<path d="M24.1044 69.4179L24.5729 67.1963C24.6244 66.9431 24.6815 66.6899 24.7215 66.4366H25.4814C25.4757 66.5229 25.4415 66.7359 25.4243 66.8107C25.5614 66.6323 25.8186 66.3791 26.3157 66.3791C26.8985 66.3791 27.2299 66.7359 27.0414 67.6165L26.6642 69.4179H25.8929L26.27 67.6107C26.3443 67.2769 26.27 67.0352 25.9386 67.0352C25.5614 67.0352 25.3215 67.3229 25.2015 67.8755L24.8815 69.4179H24.1044Z" fill="white"/>
<path d="M30.4933 67.1848L30.1104 68.9863C29.9047 69.9474 29.6419 70.615 28.4877 70.615C27.3792 70.615 27.2821 70.0165 27.2763 69.6711H28.0649C28.0763 69.8496 28.1906 70.028 28.5505 70.028C28.9962 70.028 29.1734 69.7517 29.3162 69.1186L29.3334 69.0265C29.1391 69.2683 28.8877 69.3834 28.5105 69.3834C27.8706 69.3834 27.5278 68.9114 27.5278 68.2265C27.5278 67.3517 28.0877 66.3791 29.0305 66.3791C29.4876 66.3791 29.7333 66.5517 29.8133 66.7359C29.8362 66.6438 29.8933 66.4999 29.9162 66.4366H30.659C30.6076 66.6611 30.5447 66.9316 30.4933 67.1848ZM29.1505 67.0122C28.6134 67.0122 28.3448 67.6395 28.3448 68.169C28.3448 68.5373 28.5048 68.7503 28.8248 68.7503C29.2362 68.7503 29.4933 68.3992 29.6133 67.8524C29.699 67.4496 29.6762 67.0122 29.1505 67.0122Z" fill="white"/>
<path d="M32.2195 69.4179L33.0537 65.4524H34.5565C35.345 65.4524 35.7221 65.8783 35.7221 66.4366C35.7221 66.874 35.4821 67.2481 35.025 67.3978C35.2993 67.5129 35.5278 67.8179 35.5278 68.1805C35.5278 68.9805 34.905 69.4179 33.9851 69.4179H32.2195ZM33.3794 67.6625L33.1451 68.7906H33.9222C34.3565 68.7906 34.6822 68.5891 34.6822 68.1747C34.6822 67.8524 34.4993 67.6625 34.0194 67.6625H33.3794ZM33.5108 67.0294H34.1965C34.5965 67.0294 34.8993 66.8855 34.8993 66.5114C34.8993 66.1604 34.6307 66.0798 34.3679 66.0798H33.7108L33.5108 67.0294Z" fill="white"/>
<path d="M39.0098 66.4366L38.5527 68.6237C38.4956 68.8827 38.4384 69.1762 38.3985 69.4179H37.6385C37.6442 69.3373 37.6728 69.1129 37.7014 69.0035C37.4785 69.3316 37.1585 69.4755 36.7643 69.4755C36.2157 69.4755 35.9015 69.1071 36.0443 68.4222L36.4614 66.4366H37.2328L36.8328 68.3186C36.77 68.6294 36.8157 68.8309 37.1471 68.8309C37.4842 68.8309 37.7813 68.5604 37.9185 67.8985L38.2327 66.4366H39.0098Z" fill="white"/>
<path d="M39.1086 68.497H39.8914C39.9143 68.756 40.08 68.8942 40.4057 68.8942C40.7085 68.8942 40.8285 68.756 40.8285 68.5546C40.8285 68.3647 40.6742 68.2726 40.3028 68.1575C39.6115 67.9388 39.4 67.697 39.4 67.3287C39.4 66.7935 39.8172 66.3791 40.6057 66.3791C41.4285 66.3791 41.7942 66.805 41.777 67.2769H40.9885C40.9771 67.1158 40.8971 66.9604 40.5657 66.9604C40.3714 66.9604 40.1771 67.0237 40.1771 67.2309C40.1771 67.392 40.3371 67.4496 40.6971 67.5704C41.3885 67.7891 41.6285 68.0596 41.6285 68.474C41.6285 69.1589 41.0171 69.4755 40.32 69.4755C39.5315 69.4755 39.0743 69.1186 39.1086 68.497Z" fill="white"/>
<path d="M41.9827 69.4179L42.6113 66.4366H43.3884L42.7598 69.4179H41.9827ZM42.7084 65.9532L42.8627 65.2165H43.6398L43.4855 65.9532H42.7084Z" fill="white"/>
<path d="M43.4949 69.4179L43.9635 67.1963C44.0149 66.9431 44.072 66.6899 44.112 66.4366H44.872C44.8663 66.5229 44.832 66.7359 44.8148 66.8107C44.952 66.6323 45.2091 66.3791 45.7062 66.3791C46.289 66.3791 46.6204 66.7359 46.4319 67.6165L46.0548 69.4179H45.2834L45.6605 67.6107C45.7348 67.2769 45.6605 67.0352 45.3291 67.0352C44.952 67.0352 44.712 67.3229 44.592 67.8755L44.272 69.4179H43.4949Z" fill="white"/>
<path d="M49.621 68.1057H47.7239C47.7125 68.169 47.7011 68.2208 47.7011 68.2841C47.7011 68.6006 47.8211 68.8711 48.1696 68.8711C48.4896 68.8711 48.6267 68.7042 48.7239 68.5086H49.5353C49.3696 68.9517 48.9924 69.4755 48.1068 69.4755C47.3125 69.4755 46.924 68.9747 46.924 68.2553C46.924 67.4668 47.3468 66.3791 48.5239 66.3791C49.3924 66.3791 49.701 66.9143 49.701 67.5244C49.701 67.7661 49.6667 67.9388 49.621 68.1057ZM47.8268 67.5819H48.9467C48.9581 67.5301 48.9581 67.4841 48.9581 67.4496C48.9581 67.1906 48.8439 66.9661 48.501 66.9661C48.1468 66.9661 47.9296 67.1963 47.8268 67.5819Z" fill="white"/>
<path d="M49.9283 68.497H50.7111C50.7339 68.756 50.8996 68.8942 51.2253 68.8942C51.5282 68.8942 51.6482 68.756 51.6482 68.5546C51.6482 68.3647 51.4939 68.2726 51.1225 68.1575C50.4311 67.9388 50.2197 67.697 50.2197 67.3287C50.2197 66.7935 50.6368 66.3791 51.4253 66.3791C52.2481 66.3791 52.6138 66.805 52.5967 67.2769H51.8081C51.7967 67.1158 51.7167 66.9604 51.3853 66.9604C51.191 66.9604 50.9968 67.0237 50.9968 67.2309C50.9968 67.392 51.1568 67.4496 51.5167 67.5704C52.2081 67.7891 52.4481 68.0596 52.4481 68.474C52.4481 69.1589 51.8367 69.4755 51.1396 69.4755C50.3511 69.4755 49.894 69.1186 49.9283 68.497Z" fill="white"/>
<path d="M52.7908 68.497H53.5736C53.5965 68.756 53.7622 68.8942 54.0879 68.8942C54.3907 68.8942 54.5107 68.756 54.5107 68.5546C54.5107 68.3647 54.3564 68.2726 53.985 68.1575C53.2936 67.9388 53.0822 67.697 53.0822 67.3287C53.0822 66.7935 53.4993 66.3791 54.2879 66.3791C55.1107 66.3791 55.4764 66.805 55.4592 67.2769H54.6707C54.6593 67.1158 54.5793 66.9604 54.2479 66.9604C54.0536 66.9604 53.8593 67.0237 53.8593 67.2309C53.8593 67.392 54.0193 67.4496 54.3793 67.5704C55.0707 67.7891 55.3107 68.0596 55.3107 68.474C55.3107 69.1589 54.6993 69.4755 54.0022 69.4755C53.2136 69.4755 52.7565 69.1186 52.7908 68.497Z" fill="white"/>
<path d="M59.8834 67.4611L59.6206 68.687C59.552 68.9978 59.4891 69.3316 59.4834 69.4179H58.7292C58.7349 69.3316 58.7578 69.1762 58.7692 69.0841C58.6206 69.2683 58.4264 69.4755 57.8778 69.4755C57.295 69.4755 57.0493 69.0611 57.0493 68.71C57.0493 67.8812 57.7692 67.6625 58.4206 67.5877C58.6721 67.5647 58.9006 67.5647 59.0835 67.5589L59.112 67.4208C59.152 67.2021 59.152 66.9258 58.7349 66.9258C58.3635 66.9258 58.2949 67.1273 58.2321 67.2711H57.4378C57.5464 66.7935 57.8778 66.3791 58.7978 66.3791C59.5177 66.3791 60.0491 66.6841 59.8834 67.4611ZM58.9635 68.1287L58.9749 68.0827C58.7806 68.0827 58.6149 68.0942 58.4606 68.1114C58.0264 68.1805 57.855 68.3244 57.855 68.5776C57.855 68.7503 57.9635 68.8827 58.2149 68.8827C58.752 68.8827 58.8892 68.4452 58.9635 68.1287Z" fill="white"/>
<path d="M60.207 69.4179L60.6756 67.1963C60.727 66.9431 60.7842 66.6899 60.8242 66.4366H61.5841C61.5784 66.5229 61.5441 66.7359 61.527 66.8107C61.6641 66.6323 61.9212 66.3791 62.4183 66.3791C63.0012 66.3791 63.3326 66.7359 63.144 67.6165L62.7669 69.4179H61.9955L62.3726 67.6107C62.4469 67.2769 62.3726 67.0352 62.0412 67.0352C61.6641 67.0352 61.4241 67.3229 61.3041 67.8755L60.9841 69.4179H60.207Z" fill="white"/>
<path d="M66.2817 65.2165H67.0588L66.3502 68.6122C66.2931 68.8827 66.2302 69.1474 66.1845 69.4179H65.436C65.4417 69.3086 65.4531 69.2107 65.4817 69.0668C65.2932 69.3316 65.0132 69.4755 64.6246 69.4755C63.9904 69.4755 63.6418 69.0208 63.6418 68.2956C63.6418 67.3863 64.1847 66.3791 65.2074 66.3791C65.6303 66.3791 65.9045 66.5517 65.9674 66.6956L66.2817 65.2165ZM65.2932 67.0294C64.7446 67.0294 64.4532 67.674 64.4532 68.2035C64.4532 68.6006 64.6075 68.8251 64.9332 68.8251C65.4074 68.8251 65.6588 68.4222 65.7674 67.8179C65.8645 67.3114 65.7217 67.0294 65.2932 67.0294Z" fill="white"/>
<path d="M69.0919 69.4179L69.789 66.1143H68.6348L68.7776 65.4524H71.8803L71.7374 66.1143H70.5889L69.8976 69.4179H69.0919Z" fill="white"/>
<path d="M73.9107 68.1057H72.0137C72.0023 68.169 71.9909 68.2208 71.9909 68.2841C71.9909 68.6006 72.1109 68.8711 72.4594 68.8711C72.7794 68.8711 72.9165 68.7042 73.0137 68.5086H73.825C73.6593 68.9517 73.2822 69.4755 72.3965 69.4755C71.6023 69.4755 71.2138 68.9747 71.2138 68.2553C71.2138 67.4668 71.6366 66.3791 72.8137 66.3791C73.6822 66.3791 73.9907 66.9143 73.9907 67.5244C73.9907 67.7661 73.9565 67.9388 73.9107 68.1057ZM72.1166 67.5819H73.2365C73.2479 67.5301 73.2479 67.4841 73.2479 67.4496C73.2479 67.1906 73.1336 66.9661 72.7908 66.9661C72.4365 66.9661 72.2194 67.1963 72.1166 67.5819Z" fill="white"/>
<path d="M76.1385 68.4452H76.9156C76.7556 69.0093 76.3556 69.4755 75.4814 69.4755C74.7328 69.4755 74.3386 69.0323 74.3386 68.3186C74.3386 67.4553 74.83 66.3791 75.927 66.3791C76.887 66.3791 77.127 67.064 77.087 67.4438H76.3327C76.327 67.2136 76.2527 66.9776 75.9042 66.9776C75.3556 66.9776 75.1385 67.8064 75.1385 68.2841C75.1385 68.6985 75.3042 68.8827 75.5842 68.8827C75.8413 68.8827 76.0185 68.7388 76.1385 68.4452Z" fill="white"/>
<path d="M77.2596 69.4179L78.1395 65.2165H78.9166L78.5852 66.8165C78.7623 66.5978 79.0194 66.3791 79.4766 66.3791C79.9965 66.3791 80.3908 66.6726 80.2194 67.5129L79.8194 69.4179H79.048L79.4194 67.6222C79.4994 67.2366 79.4308 67.0352 79.088 67.0352C78.6995 67.0352 78.4823 67.3229 78.3909 67.7316L78.0366 69.4179H77.2596Z" fill="white"/>
<path d="M80.5629 69.4179L81.0314 67.1963C81.0829 66.9431 81.14 66.6899 81.18 66.4366H81.94C81.9343 66.5229 81.9 66.7359 81.8828 66.8107C82.02 66.6323 82.2771 66.3791 82.7742 66.3791C83.357 66.3791 83.6884 66.7359 83.4999 67.6165L83.1227 69.4179H82.3514L82.7285 67.6107C82.8028 67.2769 82.7285 67.0352 82.3971 67.0352C82.02 67.0352 81.78 67.3229 81.66 67.8755L81.34 69.4179H80.5629Z" fill="white"/>
<path d="M85.6262 66.3791C86.3347 66.3791 86.8547 66.7819 86.8547 67.6625C86.8547 68.3589 86.449 69.4755 85.1919 69.4755C84.3691 69.4755 83.992 68.969 83.992 68.2438C83.992 67.4438 84.4948 66.3791 85.6262 66.3791ZM85.5633 66.9891C85.0262 66.9891 84.7976 67.7604 84.7976 68.2496C84.7976 68.664 84.9691 68.8654 85.2719 68.8654C85.8319 68.8654 86.049 68.0884 86.049 67.5819C86.049 67.1963 85.889 66.9891 85.5633 66.9891Z" fill="white"/>
<path d="M87.8854 69.4179H87.1083L87.9882 65.2165H88.7653L87.8854 69.4179Z" fill="white"/>
<path d="M90.3803 66.3791C91.0889 66.3791 91.6088 66.7819 91.6088 67.6625C91.6088 68.3589 91.2031 69.4755 89.9461 69.4755C89.1233 69.4755 88.7461 68.969 88.7461 68.2438C88.7461 67.4438 89.249 66.3791 90.3803 66.3791ZM90.3175 66.9891C89.7804 66.9891 89.5518 67.7604 89.5518 68.2496C89.5518 68.664 89.7232 68.8654 90.0261 68.8654C90.586 68.8654 90.8032 68.0884 90.8032 67.5819C90.8032 67.1963 90.6432 66.9891 90.3175 66.9891Z" fill="white"/>
<path d="M94.9703 67.1848L94.5874 68.9863C94.3817 69.9474 94.1189 70.615 92.9647 70.615C91.8562 70.615 91.759 70.0165 91.7533 69.6711H92.5419C92.5533 69.8496 92.6676 70.028 93.0275 70.028C93.4732 70.028 93.6504 69.7517 93.7932 69.1186L93.8103 69.0265C93.6161 69.2683 93.3647 69.3834 92.9875 69.3834C92.3476 69.3834 92.0047 68.9114 92.0047 68.2265C92.0047 67.3517 92.5647 66.3791 93.5075 66.3791C93.9646 66.3791 94.2103 66.5517 94.2903 66.7359C94.3132 66.6438 94.3703 66.4999 94.3932 66.4366H95.136C95.0845 66.6611 95.0217 66.9316 94.9703 67.1848ZM93.6275 67.0122C93.0904 67.0122 92.8218 67.6395 92.8218 68.169C92.8218 68.5373 92.9818 68.7503 93.3018 68.7503C93.7132 68.7503 93.9703 68.3992 94.0903 67.8524C94.176 67.4496 94.1532 67.0122 93.6275 67.0122Z" fill="white"/>
<path d="M95.539 66.4366H96.3161C96.4247 67.7086 96.4761 68.4683 96.4818 68.7791H96.4875C96.6361 68.451 96.9732 67.6798 97.5789 66.4366H98.3903L96.7789 69.5503C96.2818 70.5172 95.9561 70.615 95.339 70.615C95.259 70.615 95.0591 70.5978 94.9448 70.5747L95.0876 69.9301C95.1391 69.9417 95.2248 69.9532 95.3448 69.9532C95.7047 69.9532 95.8133 69.8093 95.9276 69.5906L95.539 66.4366Z" fill="white"/>
<path d="M7.09422 64.5785H1.52236C1.33857 64.5785 1.20314 64.5395 1.11608 64.4615C1.03869 64.3738 1 64.2374 1 64.0523V54.5816C1 54.3964 1.03869 54.2649 1.11608 54.1869C1.20314 54.0993 1.33857 54.0554 1.52236 54.0554H6.15107C7.09906 54.0554 7.80038 54.2405 8.25503 54.6108C8.70967 54.9713 8.937 55.5316 8.937 56.2916V56.9931C8.937 57.4023 8.86445 57.7385 8.71935 58.0016C8.58392 58.2549 8.37111 58.4449 8.08091 58.5716C8.7 58.63 9.15949 58.8444 9.45936 59.2146C9.75924 59.5849 9.90917 60.1257 9.90917 60.8369V62.1815C9.90917 63 9.67701 63.6041 9.21269 63.9938C8.75804 64.3836 8.05189 64.5785 7.09422 64.5785ZM4.26476 56.54V58.1185H5.49812C5.68191 58.1185 5.81734 58.0698 5.9044 57.9723C6.00113 57.8749 6.0495 57.7287 6.0495 57.5339V57.1246C6.0495 56.9298 6.00113 56.7836 5.9044 56.6862C5.81734 56.5887 5.68191 56.54 5.49812 56.54H4.26476ZM4.26476 60.3692V62.0939H6.15107C6.33486 62.0939 6.47029 62.0451 6.55735 61.9477C6.65408 61.8503 6.70245 61.7041 6.70245 61.5092V60.9392C6.70245 60.7444 6.65408 60.6031 6.55735 60.5154C6.47029 60.418 6.33486 60.3692 6.15107 60.3692H4.26476Z" fill="white"/>
<path d="M18.7691 64.5785H12.0365C11.8527 64.5785 11.7173 64.5395 11.6302 64.4615C11.5528 64.3738 11.5141 64.2374 11.5141 64.0523V54.5816C11.5141 54.3964 11.5528 54.2649 11.6302 54.1869C11.7173 54.0993 11.8527 54.0554 12.0365 54.0554H18.7691C18.9529 54.0554 19.0835 54.0993 19.1609 54.1869C19.248 54.2649 19.2915 54.3964 19.2915 54.5816V56.2916C19.2915 56.4767 19.248 56.6131 19.1609 56.7008C19.0835 56.7787 18.9529 56.8177 18.7691 56.8177H14.7644V57.9431H17.5938C17.7776 57.9431 17.9082 57.9869 17.9856 58.0746C18.0727 58.1526 18.1162 58.2841 18.1162 58.4692V60.0331C18.1162 60.2182 18.0727 60.3546 17.9856 60.4423C17.9082 60.5203 17.7776 60.5592 17.5938 60.5592H14.7644V61.8162H18.7691C18.9529 61.8162 19.0835 61.86 19.1609 61.9477C19.248 62.0256 19.2915 62.1572 19.2915 62.3423V64.0523C19.2915 64.2374 19.248 64.3738 19.1609 64.4615C19.0835 64.5395 18.9529 64.5785 18.7691 64.5785Z" fill="white"/>
<path d="M23.7794 64.5785H21.5304C21.3466 64.5785 21.2111 64.5395 21.1241 64.4615C21.0467 64.3738 21.008 64.2374 21.008 64.0523V54.5816C21.008 54.3964 21.0467 54.2649 21.1241 54.1869C21.2111 54.0993 21.3466 54.0554 21.5304 54.0554H28.0018C28.1856 54.0554 28.3162 54.0993 28.3936 54.1869C28.4807 54.2649 28.5242 54.3964 28.5242 54.5816V56.3208C28.5242 56.5059 28.4807 56.6423 28.3936 56.73C28.3162 56.808 28.1856 56.8469 28.0018 56.8469H24.3018V58.3669H26.8265C27.0103 58.3669 27.1409 58.4108 27.2183 58.4985C27.3054 58.5764 27.3489 58.708 27.3489 58.8931V60.6469C27.3489 60.8321 27.3054 60.9685 27.2183 61.0562C27.1409 61.1341 27.0103 61.1731 26.8265 61.1731H24.3018V64.0523C24.3018 64.2374 24.2583 64.3738 24.1712 64.4615C24.0938 64.5395 23.9632 64.5785 23.7794 64.5785Z" fill="white"/>
<path d="M38.7579 61.8162C38.7579 62.2644 38.6902 62.6736 38.5547 63.0438C38.429 63.4044 38.1968 63.7162 37.8583 63.9792C37.5294 64.2326 37.0699 64.4323 36.4798 64.5785C35.8994 64.7246 35.1594 64.7977 34.2598 64.7977C33.3601 64.7977 32.6153 64.7246 32.0252 64.5785C31.4351 64.4323 30.9708 64.2326 30.6322 63.9792C30.3034 63.7162 30.0712 63.4044 29.9358 63.0438C29.81 62.6736 29.7471 62.2644 29.7471 61.8162V56.8323C29.7471 56.3841 29.81 55.9798 29.9358 55.6193C30.0712 55.249 30.3034 54.9323 30.6322 54.6693C30.9708 54.4062 31.4351 54.2016 32.0252 54.0554C32.6153 53.9093 33.3601 53.8362 34.2598 53.8362C35.1594 53.8362 35.8994 53.9093 36.4798 54.0554C37.0699 54.2016 37.5294 54.4062 37.8583 54.6693C38.1968 54.9323 38.429 55.249 38.5547 55.6193C38.6902 55.9798 38.7579 56.3841 38.7579 56.8323V61.8162ZM33.0409 61.29C33.0409 61.4849 33.1135 61.6505 33.2586 61.7869C33.4037 61.9136 33.7374 61.9769 34.2598 61.9769C34.7821 61.9769 35.1159 61.9136 35.261 61.7869C35.4061 61.6505 35.4786 61.4849 35.4786 61.29V57.3585C35.4786 57.1734 35.4061 57.0175 35.261 56.8908C35.1159 56.7544 34.7821 56.6862 34.2598 56.6862C33.7374 56.6862 33.4037 56.7544 33.2586 56.8908C33.1135 57.0175 33.0409 57.1734 33.0409 57.3585V61.29Z" fill="white"/>
<path d="M43.8843 56.6862V58.5569H44.9726C45.2241 58.5569 45.3934 58.4936 45.4804 58.3669C45.5675 58.2305 45.611 58.0649 45.611 57.87V57.3731C45.611 57.1782 45.5675 57.0175 45.4804 56.8908C45.3934 56.7544 45.2241 56.6862 44.9726 56.6862H43.8843ZM43.362 64.5785H41.1274C40.9436 64.5785 40.8082 64.5395 40.7212 64.4615C40.6438 64.3738 40.6051 64.2374 40.6051 64.0523V54.5816C40.6051 54.3964 40.6438 54.2649 40.7212 54.1869C40.8082 54.0993 40.9436 54.0554 41.1274 54.0554H45.9593C47.0427 54.0554 47.7875 54.2844 48.1938 54.7423C48.6098 55.1905 48.8178 55.7752 48.8178 56.4962V57.1685C48.8178 57.5777 48.7549 57.9285 48.6291 58.2208C48.5131 58.5033 48.3051 58.708 48.0052 58.8346C48.5276 58.8931 48.9484 59.1074 49.2676 59.4777C49.5965 59.848 49.7609 60.34 49.7609 60.9539V64.0523C49.7609 64.2374 49.7174 64.3738 49.6303 64.4615C49.5529 64.5395 49.4224 64.5785 49.2386 64.5785H46.9895C46.8057 64.5785 46.6703 64.5395 46.5832 64.4615C46.5058 64.3738 46.4671 64.2374 46.4671 64.0523V61.8162C46.4671 61.6018 46.4236 61.4459 46.3365 61.3485C46.2592 61.2413 46.1189 61.1877 45.9158 61.1877H43.8843V64.0523C43.8843 64.2374 43.8408 64.3738 43.7538 64.4615C43.6764 64.5395 43.5458 64.5785 43.362 64.5785Z" fill="white"/>
<path d="M58.6434 64.5785H51.9108C51.727 64.5785 51.5916 64.5395 51.5045 64.4615C51.4271 64.3738 51.3884 64.2374 51.3884 64.0523V54.5816C51.3884 54.3964 51.4271 54.2649 51.5045 54.1869C51.5916 54.0993 51.727 54.0554 51.9108 54.0554H58.6434C58.8272 54.0554 58.9578 54.0993 59.0352 54.1869C59.1223 54.2649 59.1658 54.3964 59.1658 54.5816V56.2916C59.1658 56.4767 59.1223 56.6131 59.0352 56.7008C58.9578 56.7787 58.8272 56.8177 58.6434 56.8177H54.6387V57.9431H57.4681C57.6519 57.9431 57.7825 57.9869 57.8599 58.0746C57.947 58.1526 57.9905 58.2841 57.9905 58.4692V60.0331C57.9905 60.2182 57.947 60.3546 57.8599 60.4423C57.7825 60.5203 57.6519 60.5592 57.4681 60.5592H54.6387V61.8162H58.6434C58.8272 61.8162 58.9578 61.86 59.0352 61.9477C59.1223 62.0256 59.1658 62.1572 59.1658 62.3423V64.0523C59.1658 64.2374 59.1223 64.3738 59.0352 64.4615C58.9578 64.5395 58.8272 64.5785 58.6434 64.5785Z" fill="white"/>
<path d="M67.7618 64.5785H64.2213C63.0121 64.5785 62.1125 64.3349 61.5224 63.8477C60.942 63.3605 60.6518 62.6103 60.6518 61.5969V57.0516C60.6518 56.0382 60.942 55.288 61.5224 54.8008C62.1125 54.3039 63.0121 54.0554 64.2213 54.0554H67.7618C67.9456 54.0554 68.0761 54.0993 68.1535 54.1869C68.2406 54.2649 68.2841 54.3964 68.2841 54.5816V56.35C68.2841 56.5351 68.2406 56.6716 68.1535 56.7593C68.0761 56.8372 67.9456 56.8762 67.7618 56.8762H64.8452C64.5454 56.8762 64.3229 56.9395 64.1778 57.0662C64.0327 57.1831 63.9601 57.3634 63.9601 57.6069V61.0854C63.9601 61.329 64.0327 61.5092 64.1778 61.6262C64.3229 61.7333 64.5454 61.7869 64.8452 61.7869H67.7618C67.9456 61.7869 68.0761 61.8308 68.1535 61.9185C68.2406 61.9964 68.2841 62.128 68.2841 62.3131V64.0523C68.2841 64.2374 68.2406 64.3738 68.1535 64.4615C68.0761 64.5395 67.9456 64.5785 67.7618 64.5785Z" fill="white"/>
<path d="M78.703 61.8162C78.703 62.2644 78.6353 62.6736 78.4999 63.0438C78.3741 63.4044 78.142 63.7162 77.8034 63.9792C77.4745 64.2326 77.015 64.4323 76.4249 64.5785C75.8446 64.7246 75.1045 64.7977 74.2049 64.7977C73.3053 64.7977 72.5604 64.7246 71.9704 64.5785C71.3803 64.4323 70.916 64.2326 70.5774 63.9792C70.2485 63.7162 70.0163 63.4044 69.8809 63.0438C69.7552 62.6736 69.6923 62.2644 69.6923 61.8162V56.8323C69.6923 56.3841 69.7552 55.9798 69.8809 55.6193C70.0163 55.249 70.2485 54.9323 70.5774 54.6693C70.916 54.4062 71.3803 54.2016 71.9704 54.0554C72.5604 53.9093 73.3053 53.8362 74.2049 53.8362C75.1045 53.8362 75.8446 53.9093 76.4249 54.0554C77.015 54.2016 77.4745 54.4062 77.8034 54.6693C78.142 54.9323 78.3741 55.249 78.4999 55.6193C78.6353 55.9798 78.703 56.3841 78.703 56.8323V61.8162ZM72.9861 61.29C72.9861 61.4849 73.0586 61.6505 73.2037 61.7869C73.3488 61.9136 73.6825 61.9769 74.2049 61.9769C74.7273 61.9769 75.061 61.9136 75.2061 61.7869C75.3512 61.6505 75.4238 61.4849 75.4238 61.29V57.3585C75.4238 57.1734 75.3512 57.0175 75.2061 56.8908C75.061 56.7544 74.7273 56.6862 74.2049 56.6862C73.6825 56.6862 73.3488 56.7544 73.2037 56.8908C73.0586 57.0175 72.9861 57.1734 72.9861 57.3585V61.29Z" fill="white"/>
<path d="M85.9625 64.5785H81.0726C80.8888 64.5785 80.7534 64.5395 80.6663 64.4615C80.5889 64.3738 80.5502 64.2374 80.5502 64.0523V54.5816C80.5502 54.3964 80.5889 54.2649 80.6663 54.1869C80.7534 54.0993 80.8888 54.0554 81.0726 54.0554H85.9625C87.1716 54.0554 88.0664 54.299 88.6468 54.7862C89.2369 55.2734 89.532 56.0236 89.532 57.0369V61.5969C89.532 62.6103 89.2369 63.3605 88.6468 63.8477C88.0664 64.3349 87.1716 64.5785 85.9625 64.5785ZM83.844 56.8469V61.8162H85.5707C85.8029 61.8162 85.9721 61.7577 86.0786 61.6408C86.1946 61.5239 86.2527 61.3436 86.2527 61.1V57.5485C86.2527 57.3049 86.1946 57.1295 86.0786 57.0223C85.9721 56.9054 85.8029 56.8469 85.5707 56.8469H83.844Z" fill="white"/>
<path d="M98.6311 64.5785H91.8984C91.7147 64.5785 91.5792 64.5395 91.4922 64.4615C91.4148 64.3738 91.3761 64.2374 91.3761 64.0523V54.5816C91.3761 54.3964 91.4148 54.2649 91.4922 54.1869C91.5792 54.0993 91.7147 54.0554 91.8984 54.0554H98.6311C98.8149 54.0554 98.9455 54.0993 99.0229 54.1869C99.1099 54.2649 99.1535 54.3964 99.1535 54.5816V56.2916C99.1535 56.4767 99.1099 56.6131 99.0229 56.7008C98.9455 56.7787 98.8149 56.8177 98.6311 56.8177H94.6263V57.9431H97.4558C97.6396 57.9431 97.7702 57.9869 97.8476 58.0746C97.9346 58.1526 97.9782 58.2841 97.9782 58.4692V60.0331C97.9782 60.2182 97.9346 60.3546 97.8476 60.4423C97.7702 60.5203 97.6396 60.5592 97.4558 60.5592H94.6263V61.8162H98.6311C98.8149 61.8162 98.9455 61.86 99.0229 61.9477C99.1099 62.0256 99.1535 62.1572 99.1535 62.3423V64.0523C99.1535 64.2374 99.1099 64.3738 99.0229 64.4615C98.9455 64.5395 98.8149 64.5785 98.6311 64.5785Z" fill="white"/>
<defs>
<clipPath id="clip0_0_253">
<rect width="98.8955" height="51.79" fill="white" transform="translate(1 0.5)"/>
</clipPath>
</defs>
</svg>
