<svg width="100" height="100" viewBox="0 0 100 100" fill="none" xmlns="http://www.w3.org/2000/svg">
<rect x="0.5" y="0.5" width="99" height="99" rx="49.5" fill="white"/>
<rect x="0.5" y="0.5" width="99" height="99" rx="49.5" stroke="#EBAFFF"/>
<path d="M50.0006 36.5938C47.6154 36.5926 45.2731 37.228 43.2156 38.4345C41.1581 39.641 39.4599 41.3748 38.2964 43.4569C37.1328 45.539 36.5461 47.894 36.5968 50.2786C36.6474 52.6632 37.3337 54.9911 38.5846 57.0219C38.6088 57.0696 38.6377 57.1148 38.6709 57.1569C39.7377 58.8382 41.1631 60.2629 42.8451 61.3288C42.8861 61.3615 42.9304 61.3899 42.9773 61.4136C44.7421 62.501 46.7351 63.1644 48.7995 63.3515C50.864 63.5386 52.9438 63.2445 54.8754 62.4922C56.807 61.7398 58.5378 60.5498 59.9319 59.0156C61.3259 57.4814 62.3452 55.6449 62.9096 53.6502C63.474 51.6556 63.5682 49.5573 63.1848 47.5201C62.8013 45.4829 61.9507 43.5624 60.6997 41.9095C59.4487 40.2566 57.8314 38.9163 55.975 37.994C54.1185 37.0716 52.0735 36.5923 50.0006 36.5938ZM40.372 56.7523L42.9032 54.2211C43.0229 54.1014 43.1026 53.9477 43.1315 53.781C43.1604 53.6142 43.1369 53.4426 43.0645 53.2897C42.4273 51.9509 42.1916 50.4563 42.3859 48.9864C42.5803 47.5165 43.1963 46.1345 44.1595 45.0073C45.1227 43.8802 46.3919 43.0562 47.8135 42.6351C49.2351 42.214 50.7482 42.2138 52.1699 42.6345L47.4023 47.4022C47.3261 47.4783 47.2657 47.5687 47.2245 47.6682C47.1833 47.7677 47.1622 47.8744 47.1623 47.982V52.018C47.1623 52.2355 47.2487 52.4442 47.4025 52.598C47.5564 52.7519 47.765 52.8383 47.9826 52.8383H52.019C52.1267 52.8383 52.2334 52.817 52.3329 52.7758C52.4324 52.7345 52.5227 52.674 52.5988 52.5978L57.366 47.8311C57.7872 49.253 57.7873 50.7666 57.3663 52.1885C56.9452 53.6105 56.1212 54.88 54.9937 55.8435C53.8663 56.8069 52.4838 57.423 51.0136 57.6171C49.5433 57.8113 48.0483 57.5752 46.7095 56.9375C46.5566 56.8647 46.3849 56.8411 46.2181 56.87C46.0513 56.8988 45.8975 56.9788 45.7781 57.0988L43.2468 59.63C42.1301 58.8433 41.1576 57.8698 40.372 56.7523ZM50.0006 61.7656C48.1579 61.7675 46.3408 61.3338 44.6976 60.5L46.5431 58.6541C48.2825 59.3515 50.1918 59.508 52.0216 59.1031C53.8514 58.6983 55.5165 57.7509 56.7994 56.3848C58.0823 55.0187 58.9232 53.2974 59.2124 51.4458C59.5016 49.5942 59.2255 47.6985 58.4202 46.0063C58.364 45.8875 58.2801 45.7839 58.1754 45.7044C58.0708 45.6248 57.9486 45.5716 57.8191 45.5492C57.6896 45.5268 57.5566 45.5358 57.4314 45.5755C57.3061 45.6153 57.1922 45.6845 57.0993 45.7775L51.6792 51.1977H48.8029V48.3219L54.2231 42.9013C54.316 42.8084 54.3853 42.6945 54.425 42.5692C54.4648 42.4439 54.4738 42.3109 54.4514 42.1814C54.4289 42.0519 54.3757 41.9297 54.2962 41.8251C54.2166 41.7205 54.1131 41.6365 53.9943 41.5803C52.3021 40.7751 50.4063 40.499 48.5547 40.7882C46.7032 41.0773 44.9818 41.9183 43.6157 43.2012C42.2496 44.484 41.3023 46.1492 40.8974 47.9789C40.4926 49.8087 40.6491 51.7181 41.3465 53.4575L39.5006 55.3034C38.3457 53.0165 37.9689 50.4152 38.4274 47.8946C38.8858 45.374 40.1545 43.0719 42.0406 41.3381C43.9267 39.6043 46.3272 38.5335 48.8774 38.2884C51.4275 38.0432 53.9881 38.6372 56.1699 39.98C58.3517 41.3228 60.0356 43.3411 60.9658 45.7282C61.896 48.1153 62.0216 50.7408 61.3236 53.2058C60.6255 55.6708 59.142 57.8406 57.0983 59.3855C55.0546 60.9305 52.5625 61.7662 50.0006 61.7656Z" fill="#C149E9"/>
<path d="M77.0408 44.6875H71.7514C71.2101 42.4606 70.3266 40.331 69.1325 38.3749L72.8764 34.6315C73.0301 34.4776 73.1165 34.2689 73.1165 34.0514C73.1165 33.8338 73.0301 33.6252 72.8764 33.4713L66.5239 27.1207C66.3672 26.9723 66.1596 26.8896 65.9438 26.8896C65.728 26.8896 65.5205 26.9723 65.3638 27.1207L61.6222 30.8641C59.666 29.6701 57.5365 28.7867 55.3095 28.2452V22.9563C55.3096 22.8486 55.2884 22.7419 55.2472 22.6423C55.206 22.5428 55.1456 22.4523 55.0694 22.3761C54.9932 22.2999 54.9028 22.2395 54.8032 22.1983C54.7037 22.1571 54.597 22.1359 54.4892 22.136H45.5052C45.2876 22.136 45.0789 22.2224 44.9251 22.3763C44.7713 22.5301 44.6848 22.7387 44.6848 22.9563V28.2452C42.4579 28.7867 40.3284 29.6701 38.3722 30.8641L34.6288 27.1207C34.5526 27.0444 34.4622 26.984 34.3626 26.9427C34.2631 26.9014 34.1564 26.8802 34.0487 26.8802C33.9409 26.8802 33.8342 26.9014 33.7347 26.9427C33.6352 26.984 33.5447 27.0444 33.4686 27.1207L27.118 33.4732C27.0417 33.5493 26.9813 33.6397 26.94 33.7393C26.8987 33.8388 26.8775 33.9455 26.8775 34.0533C26.8775 34.161 26.8987 34.2677 26.94 34.3672C26.9813 34.4668 27.0417 34.5572 27.118 34.6333L30.8614 38.3749C29.6674 40.3311 28.784 42.4606 28.2425 44.6875H22.9531C22.7356 44.6877 22.527 44.7741 22.3732 44.9279C22.2194 45.0818 22.1329 45.2903 22.1328 45.5079V54.4919C22.1329 54.7094 22.2194 54.918 22.3732 55.0718C22.527 55.2256 22.7356 55.3121 22.9531 55.3122H28.2425C28.784 57.5392 29.6674 59.6687 30.8614 61.6249L27.118 65.3683C27.0417 65.4445 26.9813 65.5349 26.94 65.6344C26.8987 65.734 26.8775 65.8407 26.8775 65.9484C26.8775 66.0562 26.8987 66.1628 26.94 66.2624C26.9813 66.3619 27.0417 66.4523 27.118 66.5285L33.4705 72.881C33.5466 72.9572 33.637 73.0177 33.7366 73.059C33.8361 73.1002 33.9428 73.1215 34.0505 73.1215C34.1583 73.1215 34.265 73.1002 34.3645 73.059C34.4641 73.0177 34.5545 72.9572 34.6306 72.881L38.3741 69.1376C40.3296 70.3314 42.4585 71.2147 44.6848 71.756V77.0454C44.6848 77.2629 44.7713 77.4716 44.9251 77.6254C45.0789 77.7793 45.2876 77.8657 45.5052 77.8657H54.4892C54.597 77.8657 54.7037 77.8446 54.8032 77.8034C54.9028 77.7622 54.9932 77.7017 55.0694 77.6255C55.1456 77.5494 55.206 77.4589 55.2472 77.3594C55.2884 77.2598 55.3096 77.1531 55.3095 77.0454V71.7541C57.5365 71.2129 59.666 70.3296 61.6222 69.1357L65.3656 72.8791C65.5223 73.0275 65.7299 73.1101 65.9457 73.1101C66.1615 73.1101 66.3691 73.0275 66.5258 72.8791L72.8783 66.5266C73.032 66.3727 73.1184 66.1641 73.1184 65.9465C73.1184 65.729 73.032 65.5204 72.8783 65.3665L69.1325 61.6249C70.3265 59.6693 71.2099 57.5404 71.7514 55.3141H77.0408C77.2583 55.3141 77.467 55.2277 77.6208 55.0738C77.7747 54.92 77.8611 54.7114 77.8611 54.4938V45.5079C77.8611 45.2903 77.7747 45.0817 77.6208 44.9278C77.467 44.774 77.2583 44.6875 77.0408 44.6875ZM76.2205 53.6716H71.097C70.9089 53.6714 70.7264 53.7359 70.5802 53.8543C70.434 53.9727 70.333 54.1377 70.2941 54.3218C69.7684 56.8041 68.7878 59.1676 67.4019 61.293C67.2992 61.4505 67.2539 61.6386 67.2734 61.8256C67.2929 62.0126 67.3762 62.1872 67.5092 62.32L71.1378 65.9468L65.9436 71.1405L62.3173 67.5143C62.1845 67.3812 62.01 67.2978 61.823 67.2782C61.6359 67.2586 61.4479 67.3039 61.2903 67.4065C59.1651 68.7924 56.8017 69.773 54.3195 70.2986C54.1355 70.3375 53.9704 70.4384 53.8519 70.5845C53.7334 70.7306 53.6688 70.913 53.6689 71.1011V76.2246H46.3255V71.1011C46.3259 70.9128 46.2615 70.7301 46.1431 70.5836C46.0247 70.4371 45.8596 70.3358 45.6753 70.2968C43.193 69.7713 40.8294 68.7907 38.7041 67.4046C38.5464 67.3022 38.3584 67.257 38.1715 67.2766C37.9845 67.2962 37.81 67.3795 37.677 67.5124L34.0503 71.1405L28.8566 65.9468L32.4828 62.32C32.6159 62.1872 32.6992 62.0127 32.7189 61.8257C32.7385 61.6387 32.6932 61.4506 32.5906 61.293C31.2052 59.1676 30.2252 56.804 29.7003 54.3218C29.6612 54.1379 29.5601 53.9731 29.4141 53.8547C29.268 53.7364 29.0858 53.6718 28.8978 53.6716H23.7734V46.3282H28.8973C29.0854 46.3281 29.2677 46.2635 29.4139 46.1452C29.56 46.0268 29.6611 45.8619 29.7003 45.678C30.2258 43.1957 31.2064 40.8321 32.5925 38.7068C32.6951 38.5492 32.7404 38.3611 32.7208 38.1741C32.7011 37.9871 32.6178 37.8126 32.4847 37.6797L28.8566 34.053L34.0503 28.8593L37.677 32.4855C37.8099 32.6186 37.9844 32.702 38.1714 32.7216C38.3584 32.7412 38.5465 32.6959 38.7041 32.5933C40.8296 31.2081 43.1931 30.2281 45.6753 29.703C45.8592 29.6639 46.0241 29.5629 46.1424 29.4168C46.2608 29.2708 46.3254 29.0885 46.3255 28.9005V23.7766H53.6689V28.9C53.6688 29.0882 53.7334 29.2707 53.8519 29.4169C53.9703 29.5631 54.1354 29.6641 54.3195 29.703C56.8016 30.2288 59.165 31.2094 61.2903 32.5952C61.4479 32.6976 61.636 32.7428 61.8229 32.7232C62.0099 32.7036 62.1844 32.6203 62.3173 32.4874L65.9436 28.8593L71.1378 34.053L67.5111 37.6797C67.3781 37.8126 67.2948 37.9872 67.2753 38.1742C67.2557 38.3612 67.3011 38.5492 67.4038 38.7068C68.7891 40.8323 69.769 43.1958 70.2941 45.678C70.333 45.862 70.434 46.027 70.5801 46.1454C70.7262 46.2637 70.9085 46.3283 71.0966 46.3282H76.22L76.2205 53.6716Z" fill="#C149E9"/>
</svg>
