<svg width="100" height="100" viewBox="0 0 100 100" fill="none" xmlns="http://www.w3.org/2000/svg">
<rect x="0.5" y="0.5" width="99" height="99" rx="49.5" fill="white"/>
<rect x="0.5" y="0.5" width="99" height="99" rx="49.5" stroke="#BDEDF2"/>
<path d="M57.3888 38.2208H42.8198C40.2009 38.2208 38.0702 40.3515 38.0702 42.9704V57.0296C38.0702 59.6485 40.2009 61.7792 42.8198 61.7792H57.3888C60.0076 61.7792 62.1384 59.6485 62.1384 57.0296V42.9704C62.1384 40.3515 60.0078 38.2208 57.3888 38.2208ZM60.3384 57.0296C60.3384 58.6559 59.0152 59.9792 57.3888 59.9792H42.8198C41.1933 59.9792 39.8702 58.6559 39.8702 57.0296V42.9704C39.8702 41.344 41.1933 40.0208 42.8198 40.0208H57.3888C59.0152 40.0208 60.3384 41.344 60.3384 42.9704V57.0296ZM43.7078 31.5725V34.9846C43.7078 35.2233 43.8026 35.4522 43.9714 35.621C44.1402 35.7898 44.3691 35.8846 44.6078 35.8846C44.8465 35.8846 45.0754 35.7898 45.2442 35.621C45.413 35.4522 45.5078 35.2233 45.5078 34.9846V31.5725C47.1098 31.1697 48.2994 29.7176 48.2994 27.9925C48.2994 25.9569 46.6434 24.3009 44.6078 24.3009C42.5722 24.3009 40.9162 25.9569 40.9162 27.9925C40.9162 29.7176 42.1059 31.1697 43.7078 31.5725ZM44.6078 26.1009C45.6508 26.1009 46.4994 26.9494 46.4994 27.9925C46.4994 29.0354 45.6508 29.884 44.6078 29.884C43.5648 29.884 42.7162 29.0354 42.7162 27.9925C42.7162 26.9494 43.5648 26.1009 44.6078 26.1009ZM54.2836 31.5725V34.9846C54.2836 35.2233 54.3785 35.4522 54.5472 35.621C54.716 35.7898 54.9449 35.8846 55.1836 35.8846C55.4223 35.8846 55.6513 35.7898 55.82 35.621C55.9888 35.4522 56.0836 35.2233 56.0836 34.9846V31.5725C57.6856 31.1697 58.8752 29.7176 58.8752 27.9925C58.8752 25.9569 57.2192 24.3009 55.1836 24.3009C53.1481 24.3009 51.4921 25.9569 51.4921 27.9925C51.4921 29.7176 52.6818 31.1697 54.2836 31.5725ZM55.1836 26.1009C56.2267 26.1009 57.0752 26.9494 57.0752 27.9925C57.0752 29.0354 56.2267 29.884 55.1836 29.884C54.1406 29.884 53.2921 29.0354 53.2921 27.9925C53.2921 26.9494 54.1405 26.1009 55.1836 26.1009ZM56.2922 68.4274V65.0153C56.2922 64.7766 56.1974 64.5477 56.0286 64.379C55.8598 64.2102 55.6309 64.1153 55.3922 64.1153C55.1535 64.1153 54.9246 64.2102 54.7558 64.379C54.587 64.5477 54.4922 64.7766 54.4922 65.0153V68.4274C52.8902 68.8303 51.7006 70.2824 51.7006 72.0075C51.7006 74.0431 53.3566 75.6991 55.3922 75.6991C57.4278 75.6991 59.0838 74.0431 59.0838 72.0075C59.0838 70.2824 57.8941 68.8303 56.2922 68.4274ZM55.3922 73.8991C54.3492 73.8991 53.5006 73.0505 53.5006 72.0075C53.5006 70.9646 54.3492 70.1159 55.3922 70.1159C56.4352 70.1159 57.2838 70.9646 57.2838 72.0075C57.2838 73.0505 56.4352 73.8991 55.3922 73.8991ZM45.7164 68.4274V65.0153C45.7164 64.7766 45.6215 64.5477 45.4528 64.379C45.284 64.2102 45.0551 64.1153 44.8164 64.1153C44.5777 64.1153 44.3487 64.2102 44.18 64.379C44.0112 64.5477 43.9164 64.7766 43.9164 65.0153V68.4274C42.3144 68.8303 41.1248 70.2824 41.1248 72.0075C41.1248 74.0431 42.7808 75.6991 44.8164 75.6991C46.8519 75.6991 48.5079 74.0431 48.5079 72.0075C48.5079 70.2824 47.3182 68.8303 45.7164 68.4274ZM44.8164 73.8991C43.7733 73.8991 42.9248 73.0505 42.9248 72.0075C42.9248 70.9646 43.7733 70.1159 44.8164 70.1159C45.8594 70.1159 46.7079 70.9646 46.7079 72.0075C46.7079 73.0505 45.8595 73.8991 44.8164 73.8991ZM65.0154 45.5078H68.4274C68.8303 47.1098 70.2824 48.2993 72.0076 48.2993C74.0431 48.2993 75.6991 46.6433 75.6991 44.6078C75.6991 42.5722 74.0431 40.9162 72.0076 40.9162C70.2825 40.9162 68.8303 42.1059 68.4274 43.7078H65.0154C64.7767 43.7078 64.5477 43.8026 64.379 43.9714C64.2102 44.1402 64.1154 44.3691 64.1154 44.6078C64.1154 44.8465 64.2102 45.0754 64.379 45.2442C64.5477 45.413 64.7767 45.5078 65.0154 45.5078ZM72.0076 42.7162C73.0504 42.7162 73.8991 43.5649 73.8991 44.6078C73.8991 45.6508 73.0506 46.4993 72.0076 46.4993C70.9645 46.4993 70.116 45.6508 70.116 44.6078C70.116 43.5647 70.9645 42.7162 72.0075 42.7162H72.0076ZM72.0076 51.4921C70.2824 51.4921 68.8303 52.6816 68.4274 54.2836H65.0154C64.7767 54.2836 64.5477 54.3784 64.379 54.5472C64.2102 54.716 64.1154 54.9449 64.1154 55.1836C64.1154 55.4223 64.2102 55.6512 64.379 55.82C64.5477 55.9888 64.7767 56.0836 65.0154 56.0836H68.4274C68.8303 57.6855 70.2824 58.8752 72.0076 58.8752C74.0431 58.8752 75.6991 57.2192 75.6991 55.1836C75.6991 53.1481 74.0431 51.4921 72.0076 51.4921ZM72.0076 57.0752C70.9645 57.0752 70.116 56.2267 70.116 55.1836C70.116 54.1406 70.9645 53.2921 72.0075 53.2921C73.0506 53.2921 73.8991 54.1405 73.8991 55.1836C73.8991 56.2268 73.0506 57.0752 72.0075 57.0752H72.0076ZM34.9846 54.4922H31.5728C31.1698 52.8902 29.7177 51.7006 27.9926 51.7006C25.957 51.7006 24.301 53.3566 24.301 55.3922C24.301 57.4276 25.957 59.0837 27.9925 59.0837C29.7177 59.0837 31.1698 57.8941 31.5728 56.2922H34.9848C35.2235 56.2922 35.4524 56.1974 35.6212 56.0286C35.7899 55.8598 35.8848 55.6309 35.8848 55.3922C35.8848 55.1535 35.7899 54.9246 35.6212 54.7558C35.4524 54.587 35.2235 54.4922 34.9848 54.4922H34.9846ZM27.9925 57.2837C26.9494 57.2837 26.1009 56.4351 26.1009 55.3922C26.1009 54.3491 26.9494 53.5006 27.9924 53.5006C29.0355 53.5006 29.884 54.3491 29.884 55.3922C29.884 56.4351 29.0356 57.2837 27.9925 57.2837ZM34.9846 43.9163H31.5728C31.1696 42.3145 29.7176 41.1248 27.9924 41.1248C25.9568 41.1248 24.3008 42.7808 24.3008 44.8163C24.3008 46.8519 25.9568 48.5079 27.9922 48.5079C29.7175 48.5079 31.1696 47.3183 31.5726 45.7163H34.9845C35.2232 45.7163 35.4521 45.6215 35.6209 45.4527C35.7897 45.284 35.8845 45.055 35.8845 44.8163C35.8845 44.5777 35.7897 44.3487 35.6209 44.1799C35.4521 44.0112 35.2233 43.9163 34.9846 43.9163ZM27.9925 46.7079C26.9494 46.7079 26.1009 45.8595 26.1009 44.8163C26.1009 43.7732 26.9494 42.9248 27.9924 42.9248C29.0355 42.9248 29.884 43.7733 29.884 44.8163C29.884 45.8594 29.0356 46.7079 27.9925 46.7079Z" fill="#65D5E0"/>
<path d="M49.11 45.1687C48.9899 44.8974 48.7935 44.6668 48.5449 44.505C48.2962 44.3431 48.0059 44.257 47.7092 44.257C47.4125 44.257 47.1222 44.3431 46.8735 44.505C46.6249 44.6668 46.4286 44.8974 46.3084 45.1687L42.4251 53.9383C42.1506 54.5582 42.6045 55.2556 43.2825 55.2556C43.4652 55.2556 43.6439 55.2023 43.7967 55.1021C43.9494 55.002 44.0696 54.8594 44.1425 54.6919L44.8808 52.9942C44.9008 52.9483 44.9338 52.9092 44.9757 52.8817C45.0176 52.8543 45.0666 52.8397 45.1167 52.8397H50.2941C50.3965 52.8397 50.4891 52.9004 50.5299 52.9942L51.2673 54.6898C51.3405 54.858 51.4611 55.0011 51.6144 55.1016C51.7678 55.2021 51.9471 55.2557 52.1305 55.2556C52.811 55.2556 53.2667 54.5557 52.9911 53.9332L49.11 45.1687ZM49.3803 51.2212H46.0534C46.0108 51.2212 45.9688 51.2106 45.9313 51.1904C45.8937 51.1701 45.8618 51.1408 45.8384 51.1052C45.815 51.0695 45.8009 51.0286 45.7972 50.9861C45.7936 50.9436 45.8006 50.9008 45.8175 50.8617L47.4811 47.032C47.5706 46.8258 47.8632 46.8258 47.9528 47.032L49.6162 50.8617C49.6332 50.9008 49.6402 50.9436 49.6366 50.9861C49.6329 51.0286 49.6187 51.0695 49.5953 51.1052C49.5719 51.1408 49.54 51.1701 49.5025 51.1904C49.465 51.2106 49.423 51.2212 49.3803 51.2212ZM55.8621 44.257C55.6038 44.257 55.356 44.3597 55.1734 44.5423C54.9907 44.725 54.8881 44.9727 54.8881 45.2311V54.2815C54.8881 54.5398 54.9907 54.7876 55.1734 54.9702C55.356 55.1529 55.6038 55.2555 55.8621 55.2555C56.1205 55.2555 56.3682 55.1529 56.5509 54.9702C56.7335 54.7876 56.8362 54.5398 56.8362 54.2815V45.2311C56.8362 44.9727 56.7335 44.725 56.5509 44.5423C56.3682 44.3597 56.1205 44.257 55.8621 44.257Z" fill="#65D5E0"/>
</svg>
