<svg width="100" height="100" viewBox="0 0 100 100" fill="none" xmlns="http://www.w3.org/2000/svg">
<rect x="0.5" y="0.5" width="99" height="99" rx="49.5" fill="white"/>
<rect x="0.5" y="0.5" width="99" height="99" rx="49.5" stroke="#D9EAFB"/>
<path d="M39.2353 39.9183L40.6353 41.7183C40.0717 42.6092 39.6353 43.5729 39.3444 44.591L37.1898 44.8638C36.8444 44.9092 36.5898 45.2001 36.5898 45.5365V49.0092C36.5898 49.3547 36.8444 49.6456 37.1898 49.682L39.1535 49.9274C39.3898 51.0638 39.7989 52.1547 40.3808 53.1547L39.2444 54.6183C39.0353 54.891 39.0535 55.2729 39.2989 55.5183L41.7535 57.9729C41.9989 58.2183 42.3808 58.2365 42.6535 58.0274L44.008 56.9729C45.0535 57.6456 46.1898 58.1365 47.3898 58.4274L47.5989 60.0729C47.6444 60.4183 47.9353 60.6729 48.2717 60.6729H51.7444C52.0898 60.6729 52.3808 60.4183 52.4171 60.0729L52.6262 58.4274C53.8262 58.1365 54.9626 57.6456 56.008 56.9729L57.3626 58.0274C57.6353 58.2365 58.0171 58.2183 58.2626 57.9729L60.7171 55.5183C60.9626 55.2729 60.9808 54.891 60.7717 54.6183L59.6353 53.1547C60.208 52.1456 60.6262 51.0638 60.8626 49.9274L62.8262 49.682C63.1717 49.6365 63.4262 49.3456 63.4262 49.0092V45.5365C63.4262 45.191 63.1717 44.9001 62.8262 44.8638L60.6717 44.591C60.3808 43.5729 59.9444 42.6092 59.3808 41.7183L60.7808 39.9183C60.9898 39.6456 60.9717 39.2638 60.7262 39.0183L58.2717 36.5638C58.1541 36.4465 57.9977 36.3762 57.832 36.3662C57.6662 36.3561 57.5025 36.407 57.3717 36.5092L55.4535 38.0001C54.5898 37.5092 53.6717 37.1365 52.7353 36.9001L52.4353 34.4638C52.4148 34.2993 52.3354 34.1478 52.2116 34.0374C52.0879 33.9271 51.9283 33.8654 51.7626 33.8638H48.2898C47.9444 33.8638 47.6535 34.1183 47.6171 34.4638L47.3171 36.9001C46.3717 37.1365 45.4626 37.5092 44.5989 38.0001L42.6808 36.5092C42.5499 36.407 42.3862 36.3561 42.2204 36.3662C42.0547 36.3762 41.8983 36.4465 41.7808 36.5638L39.3262 39.0183C39.0444 39.2638 39.0262 39.6456 39.2353 39.9183ZM42.2808 37.9547L44.0898 39.3638C44.3171 39.5365 44.6262 39.5547 44.8717 39.4001C45.8626 38.782 46.9353 38.3547 48.0353 38.1274C48.3262 38.0729 48.5353 37.8365 48.5717 37.5456L48.8626 35.2274H51.1262L51.4171 37.5456C51.4535 37.8365 51.6717 38.0729 51.9535 38.1274C53.0626 38.3547 54.1262 38.782 55.1171 39.4001C55.3626 39.5547 55.6717 39.5365 55.8989 39.3638L57.708 37.9547L59.308 39.5547L57.9717 41.2729C57.8826 41.3881 57.8328 41.5288 57.8295 41.6744C57.8263 41.82 57.8697 41.9628 57.9535 42.082C58.6535 43.0729 59.1444 44.182 59.4353 45.3729C59.4989 45.6456 59.7353 45.8547 60.0171 45.891L62.0353 46.1456V48.4092L60.1808 48.6365C59.8808 48.6729 59.6444 48.9092 59.5898 49.2092C59.3808 50.5092 58.9171 51.7365 58.2171 52.8456C58.0626 53.091 58.0808 53.4001 58.2535 53.6274L59.308 54.991L57.708 56.591L56.4353 55.6001C56.3201 55.5111 56.1793 55.4613 56.0337 55.458C55.8881 55.4547 55.7453 55.4982 55.6262 55.582C54.4898 56.391 53.2262 56.9365 51.8626 57.2001C51.5717 57.2547 51.3535 57.491 51.3171 57.782L51.1262 59.3092H48.8626L48.6717 57.782C48.6543 57.6396 48.592 57.5065 48.494 57.4019C48.3959 57.2973 48.2671 57.2267 48.1262 57.2001C46.7717 56.9365 45.508 56.391 44.3626 55.582C44.2434 55.4982 44.1006 55.4547 43.955 55.458C43.8094 55.4613 43.6687 55.5111 43.5535 55.6001L42.2808 56.591L40.6808 54.991L41.7353 53.6274C41.908 53.4001 41.9262 53.091 41.7717 52.8456C41.0717 51.7365 40.608 50.5092 40.3989 49.2092C40.3743 49.0632 40.3037 48.929 40.1974 48.8259C40.0911 48.7229 39.9547 48.6565 39.808 48.6365L37.9444 48.4001V46.1365L39.9626 45.882C40.2444 45.8456 40.4717 45.6456 40.5444 45.3638C40.8353 44.1729 41.3262 43.0638 42.0262 42.0729C42.11 41.9537 42.1534 41.8109 42.1501 41.6653C42.1469 41.5197 42.0971 41.379 42.008 41.2638L40.6717 39.5456L42.2808 37.9547Z" fill="#62A9F0"/>
<path d="M49.9959 53.7364C53.3504 53.7364 56.0777 51.0092 56.0777 47.6546C56.0777 44.3001 53.3504 41.5728 49.9959 41.5728C46.6413 41.5728 43.9141 44.3001 43.9141 47.6546C43.9141 51.0092 46.6413 53.7364 49.9959 53.7364ZM49.9959 42.9364C52.5959 42.9364 54.7141 45.0546 54.7141 47.6546C54.7141 50.2546 52.5959 52.3728 49.9959 52.3728C47.3959 52.3728 45.2777 50.2546 45.2777 47.6546C45.2777 45.0546 47.3959 42.9364 49.9959 42.9364ZM60.0232 36.1364C60.3959 36.1364 60.705 35.8273 60.705 35.4546V29.7728H63.9322C64.2504 31.3273 65.6232 32.5001 67.2686 32.5001C69.1504 32.5001 70.6777 30.9728 70.6777 29.091C70.6777 27.2092 69.1504 25.6819 67.2686 25.6819C65.6232 25.6819 64.2413 26.8546 63.9322 28.4092H60.0232C59.6504 28.4092 59.3413 28.7182 59.3413 29.091V35.4546C59.3413 35.8273 59.6413 36.1364 60.0232 36.1364ZM67.2686 27.0455C68.3959 27.0455 69.3141 27.9637 69.3141 29.091C69.3141 30.2182 68.3959 31.1364 67.2686 31.1364C66.1413 31.1364 65.2232 30.2182 65.2232 29.091C65.2232 27.9637 66.1413 27.0455 67.2686 27.0455Z" fill="#62A9F0"/>
<path d="M73.6349 32.9547C71.9895 32.9547 70.6077 34.1274 70.2986 35.682H67.2713C66.8986 35.682 66.5895 35.9911 66.5895 36.3638V41.1365H61.8077C61.4349 41.1365 61.1259 41.4456 61.1259 41.8183C61.1259 42.1911 61.4349 42.5002 61.8077 42.5002H66.5895V46.5911H65.4531C65.0804 46.5911 64.7713 46.9002 64.7713 47.2729C64.7713 47.6456 65.0804 47.9547 65.4531 47.9547H67.2713C67.644 47.9547 67.9531 47.6456 67.9531 47.2729V42.5002H69.0895C70.7168 42.5002 72.044 43.8274 72.044 45.4547V66.5911H27.9531V45.4547C27.9531 43.8274 29.2804 42.5002 30.9077 42.5002H32.044V47.2729C32.044 47.6456 32.3531 47.9547 32.7259 47.9547H34.544C34.9168 47.9547 35.2259 47.6456 35.2259 47.2729C35.2259 46.9002 34.9168 46.5911 34.544 46.5911H33.4077V42.5002H38.1895C38.5622 42.5002 38.8713 42.1911 38.8713 41.8183C38.8713 41.4456 38.5622 41.1365 38.1895 41.1365H33.4077V36.3638C33.4077 35.9911 33.0986 35.682 32.7259 35.682H29.6986C29.3804 34.1274 28.0077 32.9547 26.3622 32.9547C24.4804 32.9547 22.9531 34.482 22.9531 36.3638C22.9531 38.2456 24.4804 39.7729 26.3622 39.7729C28.0077 39.7729 29.3895 38.6002 29.6986 37.0456H32.044V41.1365H30.9077C28.5259 41.1365 26.5895 43.0729 26.5895 45.4547V69.0911C26.5895 71.4729 28.5259 73.4093 30.9077 73.4093H41.1349V77.5002H38.1804C37.8077 77.5002 37.4986 77.8093 37.4986 78.182C37.4986 78.5547 37.8077 78.8638 38.1804 78.8638H61.8168C62.1895 78.8638 62.4986 78.5547 62.4986 78.182C62.4986 77.8093 62.1895 77.5002 61.8168 77.5002H58.8622V73.4093H69.0895C71.4713 73.4093 73.4077 71.4729 73.4077 69.0911V45.4547C73.4077 43.0729 71.4713 41.1365 69.0895 41.1365H67.9531V37.0456H70.2986C70.6168 38.6002 71.9895 39.7729 73.6349 39.7729C75.5168 39.7729 77.044 38.2456 77.044 36.3638C77.044 34.482 75.5168 32.9547 73.6349 32.9547ZM26.3622 38.4093C25.2349 38.4093 24.3168 37.4911 24.3168 36.3638C24.3168 35.2365 25.2349 34.3183 26.3622 34.3183C27.4895 34.3183 28.4077 35.2365 28.4077 36.3638C28.4077 37.4911 27.4895 38.4093 26.3622 38.4093ZM57.4986 77.5002H42.4986V73.4093H57.4986V77.5002ZM72.044 69.0911C72.044 70.7183 70.7168 72.0456 69.0895 72.0456H30.9077C29.2804 72.0456 27.9531 70.7183 27.9531 69.0911V67.9547H72.044V69.0911ZM73.6349 38.4093C72.5077 38.4093 71.5895 37.4911 71.5895 36.3638C71.5895 35.2365 72.5077 34.3183 73.6349 34.3183C74.7622 34.3183 75.6804 35.2365 75.6804 36.3638C75.6804 37.4911 74.7622 38.4093 73.6349 38.4093Z" fill="#62A9F0"/>
<path d="M32.7255 32.5001C34.371 32.5001 35.7528 31.3274 36.0619 29.7728H39.2891V35.4547C39.2891 35.8274 39.5982 36.1365 39.971 36.1365C40.3437 36.1365 40.6528 35.8274 40.6528 35.4547V29.091C40.6528 28.7183 40.3437 28.4092 39.971 28.4092H36.0619C35.7437 26.8547 34.371 25.6819 32.7255 25.6819C30.8437 25.6819 29.3164 27.2092 29.3164 29.091C29.3164 30.9728 30.8437 32.5001 32.7255 32.5001ZM32.7255 27.0456C33.8528 27.0456 34.771 27.9637 34.771 29.091C34.771 30.2183 33.8528 31.1365 32.7255 31.1365C31.5982 31.1365 30.68 30.2183 30.68 29.091C30.68 27.9637 31.5982 27.0456 32.7255 27.0456ZM49.3164 27.8819V31.8183C49.3164 32.191 49.6255 32.5001 49.9982 32.5001C50.371 32.5001 50.68 32.191 50.68 31.8183V27.8819C52.2346 27.5637 53.4073 26.191 53.4073 24.5456C53.4073 22.6637 51.88 21.1365 49.9982 21.1365C48.1164 21.1365 46.5891 22.6637 46.5891 24.5456C46.5891 26.191 47.7619 27.5728 49.3164 27.8819ZM49.9982 22.5001C51.1255 22.5001 52.0437 23.4183 52.0437 24.5456C52.0437 25.6728 51.1255 26.591 49.9982 26.591C48.871 26.591 47.9528 25.6728 47.9528 24.5456C47.9528 23.4183 48.871 22.5001 49.9982 22.5001Z" fill="#62A9F0"/>
</svg>
