<svg width="60" height="61" viewBox="0 0 60 61" fill="none" xmlns="http://www.w3.org/2000/svg">
<rect x="0.5" y="1" width="59" height="59" rx="29.5" fill="#723881"/>
<rect x="0.5" y="1" width="59" height="59" rx="29.5" stroke="#723881"/>
<g clip-path="url(#clip0_0_43)">
<path d="M30 50.5C41.0457 50.5 50 41.5457 50 30.5C50 19.4543 41.0457 10.5 30 10.5C18.9543 10.5 10 19.4543 10 30.5C10 41.5457 18.9543 50.5 30 50.5Z" fill="white"/>
<path d="M25.5257 23.2289C25.5262 23.7694 25.3664 24.2979 25.0664 24.7475C24.7665 25.1971 24.3399 25.5477 23.8406 25.7547C23.3414 25.9618 22.7919 26.0161 22.2618 25.9108C21.7317 25.8055 21.2447 25.5453 20.8626 25.1631C20.4804 24.7809 20.2202 24.294 20.1149 23.7638C20.0095 23.2337 20.0639 22.6843 20.2709 22.185C20.478 21.6858 20.8285 21.2592 21.2781 20.9593C21.7277 20.6593 22.2562 20.4995 22.7967 20.5C23.5203 20.5007 24.214 20.7884 24.7256 21.3001C25.2372 21.8117 25.525 22.5054 25.5257 23.2289Z" fill="#7B3489"/>
<path d="M24.2335 27.0974H21.3598C20.9863 27.0974 20.6835 27.4002 20.6835 27.7737V39.8237C20.6835 40.1972 20.9863 40.5 21.3598 40.5H24.2335C24.6071 40.5 24.9098 40.1972 24.9098 39.8237V27.7737C24.9098 27.4002 24.6071 27.0974 24.2335 27.0974Z" fill="#7C3489"/>
<path d="M39.9336 34.0446V39.8789C39.9336 40.0436 39.8681 40.2015 39.7517 40.318C39.6352 40.4345 39.4772 40.4999 39.3125 40.4999H36.2283C36.0636 40.4999 35.9056 40.4345 35.7891 40.318C35.6727 40.2015 35.6072 40.0436 35.6072 39.8789V34.2262C35.6072 33.3815 35.852 30.542 33.402 30.542C31.502 30.542 31.1151 32.4946 31.0336 33.371V39.892C31.0301 40.0535 30.9639 40.2074 30.849 40.3208C30.734 40.4343 30.5793 40.4986 30.4178 40.4999H27.4336C27.3519 40.5003 27.271 40.4844 27.1955 40.4533C27.12 40.4223 27.0514 40.3765 26.9936 40.3188C26.9359 40.261 26.8902 40.1924 26.8591 40.1169C26.828 40.0414 26.8122 39.9605 26.8125 39.8789V27.721C26.8122 27.6392 26.828 27.5581 26.859 27.4825C26.8901 27.4068 26.9358 27.3381 26.9935 27.2801C27.0512 27.2222 27.1198 27.1762 27.1953 27.1448C27.2708 27.1134 27.3518 27.0973 27.4336 27.0973H30.4178C30.5006 27.0959 30.5828 27.111 30.6597 27.1417C30.7366 27.1724 30.8066 27.2181 30.8656 27.2762C30.9246 27.3342 30.9715 27.4035 31.0035 27.4798C31.0355 27.5562 31.052 27.6382 31.052 27.721V28.7736C31.7572 27.721 32.8046 26.8999 35.0336 26.8999C39.9625 26.8973 39.9336 31.5104 39.9336 34.0446Z" fill="#7C3489"/>
</g>
<defs>
<clipPath id="clip0_0_43">
<rect width="40" height="40" fill="white" transform="translate(10 10.5)"/>
</clipPath>
</defs>
</svg>
