<svg width="62" height="62" viewBox="0 0 62 62" fill="none" xmlns="http://www.w3.org/2000/svg">
<rect width="62" height="62" rx="31" fill="white" fill-opacity="0.3"/>
<path d="M46.235 29.692L22.235 16.1921C22.0069 16.0641 21.7494 15.9979 21.4879 16C21.2264 16.0022 20.97 16.0725 20.744 16.2041C20.5174 16.3361 20.3295 16.5253 20.1989 16.7527C20.0684 16.9801 19.9998 17.2378 20 17.5001V44.5C19.9998 44.7622 20.0684 45.0199 20.1989 45.2473C20.3295 45.4748 20.5174 45.664 20.744 45.796C20.9737 45.9291 21.2345 45.9995 21.5 46C21.752 46 22.007 45.937 22.235 45.808L46.235 32.308C46.706 32.041 47 31.543 47 31C47 30.457 46.706 29.959 46.235 29.692Z" fill="white"/>
</svg>
