<svg width="100" height="100" viewBox="0 0 100 100" fill="none" xmlns="http://www.w3.org/2000/svg">
<rect x="0.5" y="0.5" width="99" height="99" rx="49.5" fill="white"/>
<rect x="0.5" y="0.5" width="99" height="99" rx="49.5" stroke="#FFD5B5"/>
<g clip-path="url(#clip0_0_130)">
<path d="M21.4062 77.1875H78.5938C78.9667 77.1875 79.3244 77.0393 79.5881 76.7756C79.8518 76.5119 80 76.1542 80 75.7812C80 75.4083 79.8518 75.0506 79.5881 74.7869C79.3244 74.5232 78.9667 74.375 78.5938 74.375H71.5479V43.3203C71.5479 42.9474 71.3997 42.5897 71.136 42.3259C70.8722 42.0622 70.5146 41.9141 70.1416 41.9141H61.6455C61.2725 41.9141 60.9149 42.0622 60.6511 42.3259C60.3874 42.5897 60.2393 42.9474 60.2393 43.3203V74.375H55.6543V50.1758C55.6543 49.8028 55.5061 49.4451 55.2424 49.1814C54.9787 48.9177 54.621 48.7695 54.248 48.7695H45.752C45.379 48.7695 45.0213 48.9177 44.7576 49.1814C44.4939 49.4451 44.3457 49.8028 44.3457 50.1758V74.375H39.7607V57.0312C39.7607 56.6583 39.6126 56.3006 39.3489 56.0369C39.0851 55.7732 38.7275 55.625 38.3545 55.625H29.8584C29.4854 55.625 29.1278 55.7732 28.864 56.0369C28.6003 56.3006 28.4521 56.6583 28.4521 57.0312V74.375H21.4062C21.0333 74.375 20.6756 74.5232 20.4119 74.7869C20.1482 75.0506 20 75.4083 20 75.7812C20 76.1542 20.1482 76.5119 20.4119 76.7756C20.6756 77.0393 21.0333 77.1875 21.4062 77.1875ZM63.0518 44.7266H68.7354V74.375H63.0518V44.7266ZM47.1582 51.582H52.8418V74.375H47.1582V51.582ZM31.2646 58.4375H36.9482V74.375H31.2646V58.4375ZM28.3825 52.9918C28.3282 52.8153 28.3092 52.6298 28.3265 52.4459C28.3439 52.262 28.3973 52.0833 28.4838 51.9201C28.5702 51.7569 28.6879 51.6123 28.8303 51.4945C28.9726 51.3768 29.1367 51.2883 29.3132 51.234C44.2322 46.6731 57.4462 37.7547 67.2568 25.625H61.5869C61.214 25.625 60.8563 25.4768 60.5925 25.2131C60.3288 24.9494 60.1807 24.5917 60.1807 24.2188C60.1807 23.8458 60.3288 23.4881 60.5925 23.2244C60.8563 22.9607 61.214 22.8125 61.5869 22.8125H70.1416C70.5146 22.8125 70.8722 22.9607 71.136 23.2244C71.3997 23.4881 71.5479 23.8458 71.5479 24.2188V32.7734C71.5479 33.1464 71.3997 33.5041 71.136 33.7678C70.8722 34.0315 70.5146 34.1797 70.1416 34.1797C69.7686 34.1797 69.411 34.0315 69.1472 33.7678C68.8835 33.5041 68.7354 33.1464 68.7354 32.7734V28.2539C64.0555 33.864 58.6413 38.8182 52.6387 42.9828C45.7479 47.7673 38.1587 51.4575 30.1401 53.9224C29.9636 53.9769 29.7781 53.996 29.5941 53.9787C29.4102 53.9614 29.2315 53.908 29.0682 53.8216C28.9049 53.7351 28.7603 53.6173 28.6426 53.4749C28.5249 53.3325 28.4365 53.1683 28.3823 52.9917L28.3825 52.9918Z" fill="#F09956"/>
</g>
<defs>
<clipPath id="clip0_0_130">
<rect width="60" height="60" fill="white" transform="translate(20 20)"/>
</clipPath>
</defs>
</svg>
